<?xml version="1.0" encoding="UTF-8"?>
<svg xmlns="http://www.w3.org/2000/svg" viewBox="0 0 1678.36 846.22">
  <defs>
    <style>
      .cls-1 {
        fill: #ec1f27;
      }

      .cls-2 {
        fill: #5b5b5b;
      }

      .cls-3 {
        fill: #fff;
      }
    </style>
  </defs>
  <g id="Layer_2" data-name="Layer 2">
    <path class="cls-2" d="M358.21,168.45c1.32-1.42,2.49-2.98,3.07-5.2-1.84,1.16-2.82,2.83-4.27,4.01l2.55-1.73-1.35,2.91Z"/>
  </g>
  <g id="Layer_6" data-name="Layer 6">
    <g>
      <path d="M730.93,386.42c0,9.03-8,15.62-18.73,15.62-7.92,0-15.99-3.7-19.47-11.25l7.7-5.11c3.48,5.11,8.29,6.59,11.77,6.59,2.74,0,7.77-.81,7.77-5.55,0-3.48-2.81-5.4-9.62-7.55-10.51-3.41-15.77-8.14-15.77-15.4,0-8.29,7.18-14.73,17.55-14.73s15.99,5.7,18.36,9.99l-7.4,5.41c-4-4.74-7.33-5.63-10.59-5.63-3.04,0-6.96,1.18-6.96,5.03,0,1.85.67,3.63,7.11,6,8.81,3.26,18.29,6.44,18.29,16.58Z"/>
      <path d="M782.02,375.53c0,17.99-6.66,26.43-20.88,26.43s-20.8-8.44-20.8-26.43,6.59-26.43,20.8-26.43,20.88,8.37,20.88,26.43ZM771.14,375.53c0-12.81-3.18-16.73-9.99-16.73s-9.92,3.92-9.92,16.73,3.18,16.73,9.92,16.73,9.99-3.92,9.99-16.73Z"/>
      <path d="M832.37,381.46c0,11.92-5.55,20.51-19.55,20.51s-19.55-8.59-19.55-20.51v-31.84h10.88v31.84c0,6.66,2.44,10.81,8.66,10.81s8.66-4.15,8.66-10.81v-31.84h10.88v31.84Z"/>
      <path d="M876.42,359.32h-11.33v42.13h-10.88v-42.13h-11.33v-9.7h33.54v9.7Z"/>
      <path d="M925.44,349.62v51.83h-10.88v-21.1h-15.99v21.1h-10.88v-51.83h10.88v21.32h15.99v-21.32h10.88Z"/>
      <path d="M970.75,391.75v9.7h-31.54v-51.83h31.17v9.7h-20.29v10.74h17.77v9.7h-17.77v11.99h20.66Z"/>
      <path d="M1007.92,401.45l-6.52-16.44h-8.81v16.44h-11.03v-51.83h18.73c10.88,0,18.51,5.48,18.51,17.62,0,7.7-3.04,12.73-8.07,15.47l8.29,18.73h-11.11ZM992.59,375.31h7.7c3.48,0,7.63-.44,7.63-8.07s-4.15-7.92-7.63-7.92h-7.7v15.99Z"/>
      <path d="M1067.29,349.62v51.83h-13.33l-12.51-33.83h-.3v33.83h-10.88v-51.83h13.25l12.51,33.76h.37v-33.76h10.88Z"/>
      <path d="M732.71,409.62v51.83h-13.33l-12.51-33.83h-.3v33.83h-10.88v-51.83h13.25l12.51,33.76h.37v-33.76h10.88Z"/>
      <path d="M778.02,451.75v9.7h-31.54v-51.83h31.17v9.7h-20.29v10.74h17.77v9.7h-17.77v11.99h20.66Z"/>
      <path d="M836.36,461.45h-9.85l-9.48-34.13h-.67l-9.4,34.13h-9.85l-11.25-51.83h11.4l5.63,32.21h.59l8.29-32.21h9.85l8.37,32.28h.59l5.63-32.28h11.4l-11.25,51.83Z"/>
      <path d="M918.55,409.62v51.83h-10.88v-21.1h-15.99v21.1h-10.88v-51.83h10.88v21.32h15.99v-21.32h10.88Z"/>
      <path d="M960.53,451.82h-17.4l-2.52,9.62h-11.25l14.96-51.83h15.1l14.88,51.83h-11.25l-2.52-9.62ZM958.08,442.42l-5.55-21.1h-1.33l-5.55,21.1h12.44Z"/>
      <path d="M1032.86,409.62v51.83h-10.88v-33.02h-.22l-7.92,33.02h-9.62l-7.92-33.02h-.15v33.02h-10.88v-51.83h14.81l8.66,36.13h.52l8.74-36.13h14.88Z"/>
      <path d="M1083.88,427.24c0,12.14-7.62,17.77-18.51,17.77h-7.7v16.44h-11.03v-51.83h18.73c10.88,0,18.51,5.48,18.51,17.62ZM1072.99,427.24c0-7.48-4.15-7.92-7.63-7.92h-7.7v15.99h7.7c3.48,0,7.63-.44,7.63-8.07Z"/>
      <path d="M1129.04,446.42c0,9.03-8,15.62-18.73,15.62-7.92,0-15.99-3.7-19.47-11.25l7.7-5.11c3.48,5.11,8.29,6.59,11.77,6.59,2.74,0,7.77-.81,7.77-5.55,0-3.48-2.81-5.4-9.62-7.55-10.51-3.41-15.77-8.14-15.77-15.4,0-8.29,7.18-14.73,17.55-14.73s15.99,5.7,18.36,9.99l-7.4,5.41c-4-4.74-7.33-5.63-10.59-5.63-3.04,0-6.96,1.18-6.96,5.03,0,1.85.67,3.63,7.11,6,8.81,3.26,18.29,6.44,18.29,16.58Z"/>
      <path d="M1177.69,409.62v51.83h-10.88v-21.1h-15.99v21.1h-10.88v-51.83h10.88v21.32h15.99v-21.32h10.88Z"/>
      <path d="M1202.49,409.62v51.83h-11.03v-51.83h11.03Z"/>
      <path d="M1242.69,461.45l-6.52-16.44h-8.81v16.44h-11.03v-51.83h18.73c10.88,0,18.51,5.48,18.51,17.62,0,7.7-3.04,12.73-8.07,15.47l8.29,18.73h-11.11ZM1227.37,435.31h7.7c3.48,0,7.63-.44,7.63-8.07s-4.15-7.92-7.63-7.92h-7.7v15.99Z"/>
      <path d="M1296.59,451.75v9.7h-31.54v-51.83h31.17v9.7h-20.29v10.74h17.77v9.7h-17.77v11.99h20.66Z"/>
    </g>
    <g>
      <path class="cls-1" d="M734.56,498.06c0,18.14-7.7,25.99-24.14,25.99h-14.73v-51.83h14.73c16.44,0,24.14,7.7,24.14,25.84ZM723.68,498.06c0-13.33-3.78-16.44-12.36-16.44h-4.74v32.95h4.74c8.59,0,12.36-3.04,12.36-16.51Z"/>
      <path class="cls-1" d="M781.72,509.02c0,9.03-8,15.62-18.73,15.62-7.92,0-15.99-3.7-19.47-11.25l7.7-5.11c3.48,5.11,8.29,6.59,11.77,6.59,2.74,0,7.77-.81,7.77-5.55,0-3.48-2.81-5.4-9.62-7.55-10.51-3.41-15.77-8.14-15.77-15.4,0-8.29,7.18-14.73,17.55-14.73s15.99,5.7,18.36,9.99l-7.4,5.41c-4-4.74-7.33-5.63-10.59-5.63-3.04,0-6.96,1.18-6.96,5.03,0,1.85.67,3.63,7.11,6,8.81,3.26,18.29,6.44,18.29,16.58Z"/>
      <path class="cls-1" d="M820.82,514.42h-17.4l-2.52,9.62h-11.25l14.96-51.83h15.1l14.88,51.83h-11.25l-2.52-9.62ZM818.38,505.02l-5.55-21.1h-1.33l-5.55,21.1h12.44Z"/>
    </g>
  </g>
  <g id="Layer_12" data-name="Layer 12">
    <path class="cls-1" d="M373.81,327.69c4.69.82,15.74-1.16,16.15-7.66.08-4.75-3.93-9.87-5.66-14.61-2.03-4.78-3.47-9.84-4.7-14.93-1.63-6.33-3.5-15.14-9.54-17.71-4.78-1.65-8.37,3.83-10.25,8.02-5.87,12.78-5.49,27.64,2.47,38.66,2.86,4,6.81,7.44,11.43,8.22l.1.02Z"/>
    <path class="cls-1" d="M371.77,262.07c1.08,1.86,2.13,2.99,2.99,2.93l.17-.02c1.26-.31,1.99-2.89,2.51-4.34,5.34-17.6,19.76-36.23,37.4-52.02,2.5-2.54,9.82-9.61,2.39-9.44-23.29,2.05-51.99,20.16-50.45,47.03.38,5.4,2.36,11.19,5,15.86Z"/>
    <path class="cls-1" d="M507.95,207.82c14.82,9.15,26.94,20.01,36.28,32.57,2.39,3.06,5.11,7.12,9.24,7.26l.78-.02c6.58-.82,6.48-8.75,4.69-13.79-7.39-24.57-31.07-41.66-52.99-35.08-1.97.64-6.05,1.9-4.03,4.65,1.79,2.03,3.79,2.91,6.04,4.41Z"/>
    <path class="cls-1" d="M501.32,255.89c-2.84.08-5.64,2.08-8.19,3.37-7.78,4.34-16.59,6.49-25.27,4.26-14.64-3.45-22.61-12.63-28.88-25.05-2-3.66-4.15-7.3-7.12-10.3-4.37-4.75-11.72-6.76-15.4-.21-3.22,6.33-1.03,14.11,1.33,20.39,10.29,27.78,42.56,46.49,73.16,32.1,5.88-2.82,10.95-7.33,12.86-13.55,1.19-3.74,2.18-10.65-2.42-11.01h-.07Z"/>
    <path class="cls-1" d="M423.8,214.87c2.47,1.83,6.71,2.95,9.96,3.68,2.28.49,4.58.85,6.87.79,9.2,0,15.58-8.39,24.09-11.22,5.26-1.9,10.92-2.21,16.36-.9,4.36.96,9.06,3.4,13.22,4.49,7,1.62.96-4.74-1.51-6.34-7.83-5.61-17.59-8.2-27.03-9.01-13.35-.98-26.68,1.7-38.04,8.72-3.19,2.04-8.38,6.37-4,9.76l.05.04Z"/>
    <path class="cls-1" d="M500.3,228.91c-6.97,7.33-16.94,11.64-27.03,12.08-3.56.33-9-.71-11.81-.28-6.04,1.33,6.79,10.1,8.85,10.95,12.69,7.03,24.3,1.86,34.54-7.43,3.5-3.33,6.9-7.19,7.41-11.94.3-3.35-.71-7.55-3.99-8.45-3.18-.38-5.21,2.41-7.88,4.99l-.09.09Z"/>
    <path class="cls-1" d="M472.9,232.8c4.9.03,9.78-1.63,14.22-4.05,1.99-1.09,3.56-2.34,3.59-3.61-.27-2.75-3.87-4.15-6.01-5.49-6.9-3.87-15.24-4.65-22.05-.33-2.46,1.67-8.41,5.17-6.74,8.5,3.56,3.66,11.59,4.8,16.67,4.97h.32Z"/>
    <path class="cls-1" d="M413.9,327.37c6.19,1.11,12.54,1.52,18.71.17,12.16-2.88,28.9-13.24,39.29-20.4,4.02-3.07,15.14-10.82,3.7-11.64-26.97.18-50.28-11.56-62.21-36.09-1.72-3.14-3.25-6.45-6.03-8.26-3.72-2.28-7.35,1.93-9.49,5.18-9.15,14.82-12.42,35.12-5.59,50.6,4.8,11.25,10.06,18.45,21.51,20.42l.11.02Z"/>
    <path class="cls-1" d="M437.63,334.98c-3.91.83-8.72,3.46-6.62,7.85,1.53,2.78,4.8,4.29,7.55,5.68,10.4,5,20.02,6.73,31.14,5.4,43.79-5.45,63.98-43.6,66.08-84.33.13-6.94-.88-13.97-3.71-20.35-1.42-3.34-5.77-11.72-9.81-7.31-1.19,1.65-1.41,3.78-1.57,5.76-.15,2.7-.26,5.05-.54,7.64-.79,7.55-2.74,15.53-5.78,22.34-2.53,5.72-6.31,10.84-10.44,15.53-12.91,15.11-29.79,26.03-47.64,34.48-6.06,3.31-11.81,5.81-18.56,7.3l-.11.03Z"/>
    <path class="cls-1" d="M540.3,314.35c-2.5,3.96-3.03,9.13,2.05,10.62,2.96.86,6.32.22,9.26-.6,5.55-1.55,13-5.89,18.47-11.06,3.65-3.45,5.65-8.38,7.25-13.14,2.88-8.36,2.67-17.83-1.37-25.78-3.75-7.47-10.65-13.87-19.05-15.35-4.09-.67-8.13.76-9.19,4.79-.97,3.88-.37,8.06-1.19,12.01-2.68,16.63,3.24,24.49-6.18,38.41l-.05.1Z"/>
    <path class="cls-1" d="M502.49,353.53c9.93-4.23,13.66,2.82,7.33,10.6-4.75,5.72-10.92,10.25-17.47,13.72-18.84,10.03-43,8.9-60.77-2.98-4.43-3.09-10.25-8.07-11.01-13.52.04-4.78,7.29-1.66,9.95-.95,3.03.96,6.07,1.81,9.17,2.46,21.24,4.64,43.47.58,62.71-9.28l.11-.04Z"/>
    <path d="M536.14,565.74c.89-3.71-1.76-12.2-2.88-17.15-2.43-9.85-5.16-20.89-7.32-29.73-2.11-7.9-3.04-15.88-3.01-24.05-.24-6.17.38-15.42-4.83-10.86-3.65,3.4-9.96,11.42-13.6,16.69-4.79,6.89-5.91,13.7-8.44,21.46-3.01,8.6-8.76,18.19-16.17,23.43-6.56,4.77-17.58,4.94-24.9,2.32-6.11-2.45-10.69-7.75-14.29-13.15-2.71-4.19-4.9-8.74-6.37-13.12-1.78-5.24-2.41-9.5-4.77-14.66-1.84-4.11-4.43-7.86-7.22-11.42-3.24-4.08-7.55-9.64-9.99-11.67-.6-.51-1.18-.9-1.84-1.09-3.39-.85-2.64,9.46-2.87,11.72-.05,3.21-.12,6.44-.38,9.62-.42,5.72-1.93,12.1-3.69,19.07-1.84,7.49-3.94,15.96-5.81,23.56-1.25,5.38-2.84,10.49-3.47,15.83-.7,4.46,2.26,7.28,5.95,10.25,12.95,10.5,30.25,24.52,43.91,35.57,3.59,2.86,8.05,6.65,11.1,8.82,2.9,1.98,5.38,3.52,8.58,4.11,7.53,1.39,17.93-9.64,24.64-14.59,10.73-8.68,23.31-18.88,33.75-27.33,2.7-2.18,5.32-4.3,7.95-6.45,3.42-2.84,5.38-4.64,5.96-7.14v-.06Z"/>
    <path d="M422.49,453.53c-2.48-1.49-4.81-2.29-6.79-2.1-3.01.26-5.86,2.5-6.31,5.56-.75,5.86,5.31,14.48,9.15,19.72,2.55,3.5,5.24,7.25,7.83,10.74,7.85,10.51,11.21,9.54,12.52-1.91.4-3.43.39-7.11-.44-10.52-2.05-8.94-7.94-16.79-15.86-21.43l-.1-.06Z"/>
    <g>
      <path d="M331.84,392.39c-1.26,0-2.94-.9-4.55-1.81-4.16-2.41-9.37-5.52-13.56-8.02l-2.21-1.32c-.21-.13-.45-.28-.69-.43-1.06-.65-2.16-1.33-2.95-2.04.04,0,.08-.02.12-.02.91-.17,2.57-.22,3.92-.24,2.42-.02,5.4-.03,8.35-.03s5.41.01,7.38.03c3.48.13,5.52.29,6.62,1.98l.02.04c1.09,1.95.77,5.94-.04,9.01-.61,2.52-1.6,2.85-2.41,2.85h0Z"/>
      <path d="M369.07,440.18c-3.15,0-5.82-.02-8.62-.09-4.61-.09-6.16-.45-6.68-.67.26-.24.9-.7,2.48-1.41,3.16-1.41,6.79-2.8,10.3-4.15,1.5-.58,2.96-1.14,4.33-1.68,3.06-1.19,6.25-2.29,8.76-2.29.33,0,.65.02.94.06h.13c3.27.37,7.4,2.73,11.05,4.82.92.53,1.82,1.04,2.66,1.5.26.18.73.44,1.37.8,1.04.58,3.59,2.01,4.42,2.84-.88.21-1.98.22-3.05.24-.36,0-.71.01-1.05.02-2.27.01-5.17.02-8.29.02h-18.76Z"/>
      <path d="M307.57,399.93c-1.33,0-2.41-.34-3.29-1.03-2.49-2.3-3.09-6.37-3.61-9.97-.06-.4-.12-.79-.18-1.17v-.17c-.11-1.27-.23-2.71.34-3.69.16-.2.44-.44,1.09-.44,1.94,0,5.08,2.01,7.16,3.35.62.4,1.16.74,1.59.99.6.44,1.39.93,2.22,1.45,2.33,1.47,6.21,3.92,6.03,5.55-.65,1.91-4.95,3.54-6.58,4.16-1.34.45-3.13.97-4.77.97h0Z"/>
      <path d="M359.04,408.29c-1,0-2.95-.77-5.23-2.07-.91-.54-1.85-1.07-2.85-1.63-3.03-1.7-6.17-3.46-8.5-5.62-1.86-1.71-2.69-4.32-2.49-7.78.32-4.37,1.08-9.18,4.27-11.53,1.16-.75,2.69-1.12,4.61-1.12,1.56,0,3.18.24,4.74.46.38.06.75.11,1.12.16,5.74.9,8.01,2.63,8.39,6.36.3,2.79-.06,5.55-.44,8.48-.08.62-.16,1.24-.24,1.87-.16.84-.3,2.05-.44,3.33-.35,3.12-.94,8.33-2.43,8.96l-.09.04-.05.03s-.14.06-.37.06h0Z"/>
      <path d="M316.77,418.37c-1.46,0-2.74-.35-3.92-1.06-2.89-2.03-6.36-6.62-4.5-9.97,1.91-2.86,5.9-4.45,9.43-5.86.5-.2,1-.4,1.47-.59,3.1-1.22,5.73-1.82,8.02-1.82,1.11,0,2.15.14,3.09.43,3.33.84,12.17,5.52,13.03,7.91.05,1-1.47,1.73-4.37,3.01l-.99.44c-2.76,1.15-6.05,2.49-9.24,3.78l-2.86,1.16c-.47.17-.96.36-1.46.56-2.55.98-5.19,2-7.69,2h0Z"/>
      <path d="M404.19,435.65c-.57,0-1.32-.2-2.21-.58-2.92-1.23-6.27-3.42-8.87-5.19-3.71-2.48-5.92-5.09-5.5-10.47.19-3.24.62-6.63,1.04-9.92.12-.93.24-1.86.35-2.77.07-.4.15-.92.24-1.48.29-1.93.82-5.5,2-5.89.19.02.57.14,1.23.82,1.04,1.07,2.12,2.74,2.84,3.91,4.66,7.53,8.07,16.14,9.84,24.89.3,1.53,1,5.11.04,6.29-.14.17-.4.4-1.01.4h0Z"/>
      <path d="M378.71,420.73c-1.32,0-3.32-.84-5.79-2.43-3.28-2.15-4.99-4.33-5.39-6.85-.42-2.77-.02-5.77.37-8.67.13-.95.26-1.93.36-2.89.12-.92.24-1.87.36-2.81.38-3.05.74-5.92,1.27-8.05.35-1.55,1.19-4.12,3.05-4.12.21,0,.43.03.67.09,3.53,1.01,7.15,3.79,8.77,6.76l.03.07c1.85,3.57,1.12,9.11.48,13.99-.12.95-.25,1.87-.34,2.74l-.17,1.37c-.17,1.35-.34,2.67-.51,3.89-.1.5-.19,1.09-.27,1.66-.3,2.05-.61,4.17-2.08,5.1-.22.1-.49.15-.81.15h0Z"/>
      <path d="M341.32,436.11c-3.71,0-7.56-1.37-12.51-4.43-.38-.26-.87-.56-1.4-.89-2.37-1.47-5.95-3.68-5.8-5.7.53-2.11,6.62-4.4,10.26-5.78,1.47-.55,2.75-1.03,3.65-1.46.88-.35,1.81-.72,2.74-1.09,2.03-.81,4.13-1.65,6.17-2.41,2.55-1.03,4.73-1.52,6.67-1.52,1.59,0,3.04.32,4.44.98,2.78,1.19,5.52,2.79,8.18,4.33.81.47,1.62.94,2.42,1.4.45.29,1.01.62,1.59.95,1.85,1.08,4.15,2.43,4.63,3.71-.05,1.09-4.41,2.76-6.28,3.47-.93.36-1.81.69-2.46.99-1.98.74-4,1.57-5.95,2.37-4.09,1.68-8.33,3.41-12.51,4.53-1.25.36-2.54.55-3.84.55h0Z"/>
    </g>
    <g>
      <path d="M596.18,392.39c1.26,0,2.94-.9,4.55-1.81,4.16-2.41,9.37-5.52,13.56-8.02l2.21-1.32c.21-.13.45-.28.69-.43,1.06-.65,2.16-1.33,2.95-2.04-.04,0-.08-.02-.12-.02-.91-.17-2.57-.22-3.92-.24-2.42-.02-5.4-.03-8.35-.03s-5.41.01-7.38.03c-3.48.13-5.52.29-6.62,1.98l-.02.04c-1.09,1.95-.77,5.94.04,9.01.61,2.52,1.6,2.85,2.41,2.85h0Z"/>
      <path d="M558.94,440.18c3.15,0,5.82-.02,8.62-.09,4.61-.09,6.16-.45,6.68-.67-.26-.24-.9-.7-2.48-1.41-3.16-1.41-6.79-2.8-10.3-4.15-1.5-.58-2.96-1.14-4.33-1.68-3.06-1.19-6.25-2.29-8.76-2.29-.33,0-.65.02-.94.06h-.13c-3.27.37-7.4,2.73-11.05,4.82-.92.53-1.82,1.04-2.66,1.5-.26.18-.73.44-1.37.8-1.04.58-3.59,2.01-4.42,2.84.88.21,1.98.22,3.05.24.36,0,.71.01,1.05.02,2.27.01,5.17.02,8.29.02h18.76Z"/>
      <path d="M620.44,399.93c1.33,0,2.41-.34,3.29-1.03,2.49-2.3,3.09-6.37,3.61-9.97.06-.4.12-.79.18-1.17v-.17c.11-1.27.23-2.71-.34-3.69-.16-.2-.44-.44-1.09-.44-1.94,0-5.08,2.01-7.16,3.35-.62.4-1.16.74-1.59.99-.6.44-1.39.93-2.22,1.45-2.33,1.47-6.21,3.92-6.03,5.55.65,1.91,4.95,3.54,6.58,4.16,1.34.45,3.13.97,4.77.97h0Z"/>
      <path d="M568.97,408.29c1,0,2.95-.77,5.23-2.07.91-.54,1.85-1.07,2.85-1.63,3.03-1.7,6.17-3.46,8.5-5.62,1.86-1.71,2.69-4.32,2.49-7.78-.32-4.37-1.08-9.18-4.27-11.53-1.16-.75-2.69-1.12-4.61-1.12-1.56,0-3.18.24-4.74.46-.38.06-.75.11-1.12.16-5.74.9-8.01,2.63-8.39,6.36-.3,2.79.06,5.55.44,8.48.08.62.16,1.24.24,1.87.16.84.3,2.05.44,3.33.35,3.12.94,8.33,2.43,8.96l.09.04.05.03s.14.06.37.06h0Z"/>
      <path d="M611.25,418.37c1.46,0,2.74-.35,3.92-1.06,2.89-2.03,6.36-6.62,4.5-9.97-1.91-2.86-5.9-4.45-9.43-5.86-.5-.2-1-.4-1.47-.59-3.1-1.22-5.73-1.82-8.02-1.82-1.11,0-2.15.14-3.09.43-3.33.84-12.17,5.52-13.03,7.91-.05,1,1.47,1.73,4.37,3.01l.99.44c2.76,1.15,6.05,2.49,9.24,3.78l2.86,1.16c.47.17.96.36,1.46.56,2.55.98,5.19,2,7.69,2h0Z"/>
      <path d="M523.83,435.65c.57,0,1.32-.2,2.21-.58,2.92-1.23,6.27-3.42,8.87-5.19,3.71-2.48,5.92-5.09,5.5-10.47-.19-3.24-.62-6.63-1.04-9.92-.12-.93-.24-1.86-.35-2.77-.07-.4-.15-.92-.24-1.48-.29-1.93-.82-5.5-2-5.89-.19.02-.57.14-1.23.82-1.04,1.07-2.12,2.74-2.84,3.91-4.66,7.53-8.07,16.14-9.84,24.89-.3,1.53-1,5.11-.04,6.29.14.17.4.4,1.01.4h0Z"/>
      <path d="M549.3,420.73c1.32,0,3.32-.84,5.79-2.43,3.28-2.15,4.99-4.33,5.39-6.85.42-2.77.02-5.77-.37-8.67-.13-.95-.26-1.93-.36-2.89-.12-.92-.24-1.87-.36-2.81-.38-3.05-.74-5.92-1.27-8.05-.35-1.55-1.19-4.12-3.05-4.12-.21,0-.43.03-.67.09-3.53,1.01-7.15,3.79-8.77,6.76l-.03.07c-1.85,3.57-1.12,9.11-.48,13.99.12.95.25,1.87.34,2.74l.17,1.37c.17,1.35.34,2.67.51,3.89.1.5.19,1.09.27,1.66.3,2.05.61,4.17,2.08,5.1.22.1.49.15.81.15h0Z"/>
      <path d="M586.7,436.11c3.71,0,7.56-1.37,12.51-4.43.38-.26.87-.56,1.4-.89,2.37-1.47,5.95-3.68,5.8-5.7-.53-2.11-6.62-4.4-10.26-5.78-1.47-.55-2.75-1.03-3.65-1.46-.88-.35-1.81-.72-2.74-1.09-2.03-.81-4.13-1.65-6.17-2.41-2.55-1.03-4.73-1.52-6.67-1.52-1.59,0-3.04.32-4.44.98-2.78,1.19-5.52,2.79-8.18,4.33-.81.47-1.62.94-2.42,1.4-.45.29-1.01.62-1.59.95-1.85,1.08-4.15,2.43-4.63,3.71.05,1.09,4.41,2.76,6.28,3.47.93.36,1.81.69,2.46.99,1.98.74,4,1.57,5.95,2.37,4.09,1.68,8.33,3.41,12.51,4.53,1.25.36,2.54.55,3.84.55h0Z"/>
    </g>
    <path d="M482.72,522.23c-6.07-3.54-17.1-3.84-24.56-2.94-4.46.7-8.74,1.25-11.65,4.1-3.41,4.21.26,8.39,5.2,10.97,6.09,2.9,13.06,4.23,19.63,2.59,3.64-.83,7.95-2.35,10.63-4.58,3.68-2.77,5.01-7.29.83-10.09l-.08-.05Z"/>
    <path class="cls-3" d="M417.34,461.85h4.29c2.84,0,5.14,2.3,5.14,5.14v2.73h-1.56c-4.35,0-7.87-3.53-7.87-7.87h0Z"/>
    <path d="M508.24,453.49c2.44-1.47,4.73-2.25,6.67-2.06,2.96.25,5.76,2.46,6.2,5.46.74,5.75-5.21,14.22-8.99,19.37-2.51,3.44-5.15,7.12-7.69,10.54-7.71,10.32-11.01,9.37-12.29-1.88-.39-3.37-.38-6.98.43-10.34,2.02-8.78,7.8-16.49,15.58-21.04l.09-.06Z"/>
    <path class="cls-3" d="M511.6,461.85h1.56v2.73c0,2.84-2.3,5.14-5.14,5.14h-4.29c0-4.35,3.53-7.87,7.87-7.87Z" transform="translate(1016.89 931.57) rotate(180)"/>
    <path d="M465.78,512.36c4.34,0,8.49-1.98,11.1-5.46,2.97-3.97,4.61-9.35,5.17-14.04,2.02-16.55,5.58-33.85,18.33-45.6,4.95-5.16,10.84-9.98,13.41-16.86,2.88-6.98.51-15.18,2.24-22.13,1.14-4.72,4.5-8.45,8.26-11.37,35.07-25.3,85.6-51.43,112.69-78.76,15.76-16.11,14.48-51.03,1.86-73.13-2.75-4.81-10.15-2.04-9.11,3.4,3.33,17.53,5.93,42.73-3.65,53.36-3.47,4.72-10.83,12.29-16.93,9.45-4.38-4.85-.64-13.03-.8-19,.85-8.84-1.1-21.2-2.69-27.61-1.96-9.05-16.85-49.38-32.18-45.06-10.19,10.25,33.4,47.01,12.2,93.38-6.92,15.17-19.19,26.41-32.03,36.8-2.44,1.38-12.14,11.3-13.2,7.28.5-7.4,2.33-16.22-3.18-22.32-4.35-5.93-13.32-3.08-13.9,4.09-.75,5.04.84,10.16-.09,15.21-2.79,13.21-11.16,25.69-22.56,32.79l-.1.07c-9.67,5.9-19.2,12.77-29.89,15.49-1.41.29-3.21.51-5.28.49-2.07.03-3.87-.2-5.28-.49-10.68-2.72-20.22-9.59-29.89-15.49l-.1-.07c-11.4-7.1-19.77-19.58-22.56-32.79-.93-5.05.65-10.17-.09-15.21-.58-7.17-9.55-10.02-13.9-4.09-5.51,6.09-3.68,14.92-3.18,22.32-1.06,4.02-10.76-5.9-13.2-7.28-12.84-10.4-25.11-21.63-32.03-36.8-21.2-46.37,22.39-83.13,12.2-93.38-15.33-4.32-30.22,36.01-32.18,45.06-1.59,6.41-3.54,18.76-2.69,27.61-.15,5.98,3.58,14.16-.8,19-6.11,2.84-13.46-4.73-16.93-9.45-9.59-10.63-6.99-35.84-3.65-53.36,1.03-5.44-6.37-8.21-9.11-3.4-12.62,22.1-13.9,57.03,1.86,73.13,27.09,27.33,77.63,53.46,112.69,78.76,3.76,2.91,7.12,6.65,8.26,11.37,1.73,6.94-.64,15.14,2.24,22.13,2.57,6.88,8.46,11.7,13.41,16.86,12.75,11.75,16.31,29.05,18.33,45.6.57,4.7,2.2,10.07,5.17,14.04,2.6,3.48,6.75,5.46,11.1,5.46h.66Z"/>
  </g>
</svg>