<?xml version="1.0" encoding="UTF-8"?>
<svg xmlns="http://www.w3.org/2000/svg" viewBox="0 0 846.22 846.22">
  <defs>
    <style>
      .cls-1, .cls-2 {
        fill: #ec1f27;
      }

      .cls-3 {
        fill: #fff;
      }

      .cls-2 {
        stroke: #ec1f27;
        stroke-linejoin: round;
        stroke-width: 3px;
      }
    </style>
  </defs>
  <g id="Layer_6" data-name="Layer 6">
    <g>
      <path class="cls-2" d="M125.59,591.87c-12.63,0-24.09-5.08-29.91-13.25-.3-.46-.68-.99-1.05-1.51-2.06-2.87-2.26-3.61-1.65-4.38,1.86-1.67,4.46-3.29,6.97-4.86,1.24-.78,2.42-1.51,3.48-2.24.74-.47,1.37-.72,1.81-.72.14,0,.46,0,.97.49.68.6,1.28,1.19,1.88,1.77,1.33,1.28,2.7,2.6,4.29,3.7,2.93,2.11,6.2,3.52,9.69,4.17,1.2.22,2.39.32,3.56.32,6.59,0,12-3.46,12.87-8.24.4-2.22.27-7.77-9.64-11.52-1.84-.73-3.75-1.43-5.77-2.18-6.92-2.54-14.07-5.16-19.26-9.52l-.1-.08c-8.81-6.56-10.94-19.23-4.84-28.84,5.27-8.14,14.97-12.81,26.59-12.81,9.78,0,19.39,3.48,25.7,9.3,2.83,2.67,4.3,4.42,5.74,6.86.13.29.13.4.13.41-.06.23-.58.77-1.54,1.61-2.36,1.81-5.52,4.04-8.07,5.83l-.74.52c-.67.42-1.41.89-1.95.95-.69-.07-1.38-.65-2.4-1.59-.41-.38-.84-.77-1.31-1.14-3.19-2.98-8.71-5.99-13.24-6.06-.37-.03-.74-.04-1.11-.04-3.49,0-6.65,1.1-8.89,3.09-2.55,2.08-4.09,5.8-1.97,8.77,2.58,3.46,7.3,5.31,11.1,6.79l1.11.43c16.56,5.82,32.45,13.04,29.64,31.57-2.89,16.5-19.08,22.37-32.07,22.37h0Z"/>
      <path class="cls-2" d="M225.88,591.03c-2.21,0-4.47-.01-6.65-.03-2.07-.01-4.07-.02-5.92-.02h-.63c-.55,0-.85-.04-1.01-.06-.11-.24-.27-.68-.42-1.07-.1-.26-2.41-6.52-2.41-6.52-1.61-4.3-3.71-10-5.86-15.86-3.13-8.52-6.38-17.34-8.4-22.59l-.05-.13-.07-.12c-.66-1.22-1.7-1.35-2.12-1.35-.37,0-2.2.13-2.34,2.61-.14,1.98-.08,7.81-.02,15.19.1,10.72.21,23.85-.21,29.9-.72.04-1.75.04-2.67.04h-14.01c-.4,0-1,0-1.52-.03-.08-13.82-.02-75.85,0-87.77.17,0,.35,0,.53,0,.32,0,.67.01,1.03.01s.74,0,1.13-.03h14.39c1.34,0,2.67,0,3.99.01.78,0,1.16.04,1.35.08.11.24.28.68.43,1.08l.09.23c2.01,5.27,4.29,11.51,6.71,18.11,3.57,9.76,7.25,19.85,10.18,27.05l4.31-.71c.18-3,.14-16.25.11-27.94-.02-7.58-.04-14.75,0-17.88.3-.02.64-.02.94-.03h.43c1.87,0,4.79-.01,7.72-.01s6.16,0,8.11,0c.45.03.85.04,1.21.04.02,8.35.02,42.71.01,65.88,0,10.05,0,18.24,0,21.8-2.22.07-4.92.11-8.37.11Z"/>
      <path class="cls-2" d="M262.22,591c-3.28,0-6.58,0-8.54,0-.22-.02-.45-.03-.7-.03h-.11c.04-4.68,0-14.58-.05-25.85-.1-22.68-.23-53.1.19-61.9.3,0,.58,0,.73-.01h9.65c2.81,0,5.47,0,7.11.01.2,0,.47.01.69.03.09,2.76.07,6.85.06,11.54-.01,3.19-.02,6.61,0,9.96,0,1.74,0,3.38,0,4.86,0,2.55-.01,4.57.06,5.78.14,1.6.75,2.68,1.84,3.27,1.16.6,2.36.62,3.32.64.18,0,.61.02.61.02h.08c.68-.02,1.42-.03,2.2-.03,1.3,0,2.71.02,4.16.04,1.55.02,3.14.05,4.67.05,3.23,0,5.53-.11,7.23-.35l.24-.03.23-.09c2.36-.88,2.4-3.24,2.42-4.25,0-.14,0-.28.01-.42v-.12c.01-2.75,0-7.92,0-13.32,0-6.97,0-14.33.01-17.41v-.14c.29-.02.6-.02.84-.02h.43c.77.02,1.6.02,2.48.02,1.39,0,2.91-.02,4.46-.04,1.61-.02,3.27-.05,4.88-.05,2.2,0,3.94.05,5.35.15,0,.24,0,.5,0,.78,0,.51-.01,1.07,0,1.7,0,0,0,80.7,0,85.2-.25,0-.51.01-.79.03-1.41,0-3.55,0-5.88,0h-9.4c-.86,0-1.77-.01-2.35-.06-.06-.57-.04-1.34-.02-2.28.02-.9.04-2.02,0-3.33v-24.25c0-2.47-.01-5.54-4.3-5.77-1.29-.06-2.54-.07-3.48-.07h-3.25s-1.11,0-1.11,0c-.51,0-1.01,0-1.54,0h-4.84c-1.86-.01-3.12,0-4.08.05-4.03.06-4.46,3.04-4.45,4.31-.04,2.92-.04,10.15-.03,17.15,0,4.12,0,8.19,0,11.33v.91c.02.71.03,1.5-.01,1.97-.15.01-.36.02-.65.02h-.38c-1.97,0-4.97,0-8,0Z"/>
    </g>
    <g>
      <path class="cls-2" d="M561,591.04c-2.63,0-5.28-.03-7.8-.05-2.31-.02-4.52-.04-6.53-.04-1.35,0-2.61,0-3.75.03-.04-8.63-.03-40.52-.02-64.23v-23.38s0-.13,0-.16c.17,0,.36,0,.55-.02.83,0,1.88.01,3.03.01,1.91,0,4.07,0,6.32-.01,2.45,0,5.02-.02,7.48-.02,3.72,0,6.43.02,8.53.05h.32c24.42,0,38.03,12.71,39.36,36.74,1.52,17.2-1.71,30.9-9.34,39.7-5.83,6.71-14.14,10.4-24.7,10.96-3.37.28-7.62.4-13.44.4ZM568.67,519.12c-.66,0-1.33,0-1.99.03,0,0-.46.03-.63.04-1.21.06-4.43.22-4.66,3.52v.14c-.04,3.9-.03,16.38-.03,27.4,0,6.08,0,11.74,0,15.29.06,1.43.02,2.54-.02,3.43-.07,1.83-.14,3.41,1.04,4.65,1.21,1.26,3.06,1.36,5,1.36.58,0,1.25-.01,2.01-.04h.19c8.47-.06,17.46-1.96,19.73-15.53,1.69-10.61,1.34-20.57-1.02-28.83-2.91-10.15-12.02-11.45-19.63-11.45Z"/>
      <path class="cls-2" d="M648.05,591.87c-12.63,0-24.09-5.08-29.91-13.25-.3-.46-.68-.99-1.05-1.51-2.06-2.87-2.26-3.61-1.65-4.38,1.86-1.67,4.46-3.29,6.97-4.86,1.24-.78,2.42-1.51,3.48-2.24.74-.47,1.37-.72,1.81-.72.14,0,.46,0,.97.49.68.6,1.28,1.19,1.88,1.77,1.33,1.28,2.7,2.6,4.29,3.71,2.93,2.11,6.2,3.52,9.69,4.17,1.2.22,2.39.32,3.56.32,6.59,0,12-3.46,12.87-8.24.4-2.22.27-7.78-9.64-11.52-1.84-.73-3.75-1.43-5.77-2.18-6.92-2.54-14.07-5.16-19.26-9.52l-.1-.08c-8.81-6.56-10.94-19.23-4.84-28.84,5.27-8.14,14.97-12.81,26.59-12.81,9.78,0,19.39,3.48,25.7,9.3,2.83,2.67,4.3,4.42,5.74,6.86.13.29.13.4.13.41-.06.22-.58.77-1.54,1.61-2.36,1.81-5.52,4.04-8.07,5.83l-.74.52c-.67.42-1.41.89-1.95.95-.69-.07-1.38-.65-2.4-1.59-.41-.38-.84-.77-1.31-1.14-3.19-2.98-8.71-5.99-13.24-6.06-.37-.03-.74-.04-1.11-.04-3.49,0-6.65,1.1-8.89,3.09-2.55,2.08-4.09,5.8-1.97,8.77,2.58,3.46,7.3,5.31,11.1,6.79l1.11.43c16.56,5.82,32.45,13.04,29.64,31.57-2.89,16.5-19.08,22.37-32.07,22.37h0Z"/>
      <path class="cls-2" d="M750.81,591.07c-3,0-5.16-.09-6.75-.28-.15-.21-.36-.86-.49-1.26l-.07-.21c-.37-1.21-.77-2.79-1.2-4.46-.61-2.4-1.25-4.87-1.89-6.66-1.12-3.5-4.52-3.5-5.97-3.5h-.36c-.85.02-1.75.03-2.71.03-1.51,0-3.16-.02-4.86-.04-1.82-.02-3.7-.04-5.51-.04-3.61,0-6.19.08-8.13.26l-.16.02-.16.04c-2.55.62-3.28,2.94-3.72,4.32l-.06.2c-.39,1.33-.85,3.11-1.32,4.91-.5,1.9-1.01,3.87-1.4,5.16-.09.27-.33,1.05-.53,1.27-1.62.15-3.81.22-6.84.22-1.72,0-3.5-.02-5.2-.04-1.58-.02-3.1-.04-4.45-.04-.84,0-1.62,0-2.32.03,3.69-14.38,19.09-67.37,25.55-87.79.13,0,1.02,0,1.02,0,.94.02,2.15.03,3.5.03,2,0,4.29-.02,6.65-.04,2.49-.02,5.06-.05,7.45-.05,2.89,0,5.03.03,6.6.11,2.63,7.07,11.1,37,17.4,59.26,3.67,12.99,6.69,23.65,8.16,28.48h0c-.73-.03-1.56-.04-2.45-.04-1.38,0-2.92.03-4.53.05-1.72.03-3.52.06-5.26.06ZM722.74,527.06c-1.39,4.18-3.86,13.56-5.66,20.41-.83,3.17-1.56,5.91-1.91,7.14l-.03.11-.02.11c-.32,1.74.16,2.95,1.42,3.63l.29.16.33.07c1.18.25,2.62.36,4.64.36.86,0,1.74-.02,2.61-.04.81-.02,1.61-.04,2.36-.04.49,0,.95,0,1.39.03h.13s.13,0,.13,0c.24-.02.46-.02.68-.02.26,0,.52,0,.76.01.26,0,.5.01.73.01.71,0,2.38,0,3.55-1.36l.65-.76-.13-.99c-.41-3.18-1.87-8.31-3.42-13.76-.97-3.4-1.97-6.92-2.69-9.9-.28-.99-.49-1.81-.68-2.5-.75-2.83-1.06-4-2.75-4.19h-.12s-1.74-.01-1.74-.01l-.53,1.53Z"/>
    </g>
  </g>
  <g id="Layer_12" data-name="Layer 12">
    <path class="cls-1" d="M296.47,305.96c6.94,1.21,23.28-1.72,23.88-11.32.12-7.02-5.82-14.6-8.37-21.61-3.01-7.08-5.12-14.56-6.94-22.08-2.42-9.35-5.18-22.39-14.11-26.18-7.06-2.44-12.38,5.66-15.15,11.86-8.68,18.89-8.12,40.87,3.66,57.17,4.23,5.91,10.06,11,16.9,12.15l.15.03Z"/>
    <path class="cls-1" d="M293.45,208.92c1.59,2.75,3.15,4.43,4.42,4.33l.25-.03c1.86-.46,2.94-4.27,3.72-6.42,7.89-26.02,29.22-53.58,55.31-76.93,3.69-3.75,14.53-14.22,3.53-13.95-34.43,3.03-76.89,29.81-74.61,69.55.57,7.98,3.5,16.55,7.39,23.45Z"/>
    <path class="cls-1" d="M494.82,128.7c21.92,13.54,39.83,29.6,53.65,48.16,3.54,4.53,7.56,10.53,13.67,10.74l1.15-.03c9.72-1.21,9.58-12.94,6.93-20.39-10.92-36.33-45.95-61.61-78.36-51.88-2.91.94-8.95,2.82-5.96,6.87,2.65,3,5.61,4.31,8.93,6.52Z"/>
    <path class="cls-1" d="M485.02,199.78c-4.2.12-8.35,3.07-12.11,4.99-11.51,6.42-24.54,9.59-37.37,6.29-21.64-5.1-33.43-18.68-42.7-37.04-2.96-5.41-6.14-10.8-10.52-15.23-6.47-7.02-17.33-9.99-22.78-.31-4.77,9.35-1.52,20.87,1.96,30.15,15.22,41.08,62.93,68.75,108.19,47.47,8.7-4.17,16.19-10.84,19.02-20.03,1.76-5.52,3.23-15.76-3.58-16.28h-.11Z"/>
    <path class="cls-1" d="M370.39,139.13c3.65,2.71,9.92,4.36,14.74,5.43,3.38.73,6.77,1.25,10.16,1.17,13.6,0,23.05-12.4,35.62-16.59,7.77-2.81,16.15-3.26,24.2-1.34,6.45,1.42,13.39,5.03,19.56,6.64,10.35,2.39,1.42-7.01-2.23-9.38-11.59-8.29-26.01-12.12-39.97-13.33-19.74-1.45-39.45,2.52-56.25,12.89-4.72,3.01-12.39,9.42-5.91,14.44l.08.06Z"/>
    <path class="cls-1" d="M483.51,159.88c-10.31,10.83-25.06,17.22-39.97,17.86-5.27.5-13.31-1.04-17.47-.42-8.93,1.96,10.04,14.93,13.09,16.19,18.76,10.4,35.94,2.75,51.08-10.99,5.17-4.92,10.21-10.63,10.96-17.65.44-4.95-1.06-11.17-5.91-12.49-4.71-.56-7.71,3.56-11.66,7.38l-.13.13Z"/>
    <path class="cls-1" d="M442.99,165.65c7.24.04,14.46-2.41,21.02-5.99,2.94-1.61,5.27-3.46,5.3-5.33-.41-4.07-5.72-6.13-8.89-8.11-10.2-5.73-22.53-6.87-32.61-.49-3.64,2.48-12.43,7.65-9.97,12.57,5.27,5.42,17.14,7.1,24.65,7.35h.48Z"/>
    <path class="cls-1" d="M355.74,305.48c9.15,1.64,18.54,2.24,27.67.25,17.98-4.26,42.73-19.58,58.1-30.17,5.95-4.54,22.39-16.01,5.47-17.21-39.88.27-74.36-17.09-91.99-53.37-2.54-4.64-4.81-9.53-8.92-12.21-5.5-3.37-10.87,2.86-14.03,7.66-13.53,21.92-18.37,51.93-8.27,74.82,7.09,16.63,14.87,27.28,31.8,30.2l.16.03Z"/>
    <path class="cls-1" d="M390.83,316.75c-5.78,1.23-12.89,5.12-9.79,11.61,2.27,4.11,7.09,6.34,11.17,8.41,15.38,7.4,29.61,9.95,46.05,7.98,64.76-8.06,94.62-64.48,97.71-124.71.2-10.26-1.3-20.66-5.48-30.1-2.1-4.94-8.54-17.33-14.51-10.81-1.76,2.43-2.09,5.59-2.32,8.51-.22,4-.38,7.46-.8,11.29-1.16,11.17-4.05,22.97-8.54,33.03-3.75,8.45-9.33,16.02-15.44,22.96-19.09,22.35-44.06,38.5-70.45,50.99-8.96,4.9-17.46,8.59-27.44,10.79l-.16.04Z"/>
    <path class="cls-1" d="M542.67,286.23c-3.7,5.86-4.48,13.5,3.04,15.7,4.38,1.27,9.34.32,13.7-.89,8.21-2.28,19.22-8.71,27.31-16.36,5.4-5.1,8.36-12.4,10.72-19.43,4.25-12.36,3.96-26.36-2.03-38.12-5.55-11.05-15.75-20.51-28.17-22.7-6.04-.98-12.02,1.13-13.59,7.08-1.43,5.74-.54,11.92-1.76,17.77-3.96,24.59,4.8,36.21-9.14,56.81l-.08.14Z"/>
    <path class="cls-1" d="M486.75,344.17c14.69-6.25,20.21,4.18,10.83,15.68-7.03,8.46-16.14,15.16-25.84,20.29-27.86,14.83-63.59,13.16-89.86-4.4-6.55-4.57-15.15-11.93-16.28-20,.05-7.07,10.78-2.46,14.71-1.41,4.48,1.42,8.97,2.68,13.56,3.63,31.41,6.86,64.28.86,92.73-13.72l.16-.06Z"/>
    <path d="M536.51,657.98c1.32-5.49-2.61-18.04-4.26-25.37-3.6-14.56-7.62-30.89-10.83-43.96-3.12-11.69-4.5-23.49-4.44-35.56-.36-9.12.56-22.81-7.14-16.06-5.4,5.02-14.72,16.89-20.11,24.68-7.08,10.19-8.74,20.26-12.48,31.74-4.46,12.72-12.96,26.9-23.92,34.65-9.7,7.05-25.99,7.3-36.83,3.44-9.04-3.63-15.81-11.46-21.13-19.44-4.01-6.2-7.24-12.93-9.42-19.4-2.64-7.74-3.57-14.04-7.05-21.67-2.73-6.08-6.55-11.63-10.68-16.89-4.8-6.03-11.17-14.25-14.77-17.25-.89-.75-1.74-1.33-2.72-1.62-5.02-1.26-3.9,13.99-4.24,17.33-.07,4.75-.18,9.52-.56,14.23-.62,8.46-2.85,17.89-5.45,28.2-2.72,11.07-5.83,23.6-8.59,34.84-1.84,7.95-4.2,15.52-5.13,23.41-1.04,6.6,3.35,10.76,8.8,15.15,19.14,15.53,44.74,36.27,64.93,52.6,5.31,4.22,11.9,9.84,16.42,13.04,4.29,2.93,7.95,5.21,12.69,6.08,11.14,2.05,26.51-14.25,36.43-21.58,15.87-12.83,34.47-27.92,49.91-40.41,3.99-3.23,7.87-6.36,11.76-9.54,5.06-4.2,7.96-6.87,8.81-10.56l.02-.08Z"/>
    <path d="M368.45,492.04c-3.67-2.21-7.12-3.39-10.04-3.1-4.45.38-8.67,3.7-9.34,8.22-1.12,8.66,7.85,21.41,13.54,29.16,3.78,5.18,7.75,10.72,11.57,15.88,11.61,15.54,16.58,14.1,18.51-2.82.59-5.07.57-10.51-.65-15.56-3.04-13.22-11.74-24.83-23.46-31.68l-.14-.08Z"/>
    <g>
      <path d="M234.4,401.63c-1.86,0-4.34-1.32-6.73-2.68-6.15-3.56-13.86-8.16-20.06-11.86l-3.27-1.95c-.32-.2-.67-.41-1.02-.63-1.57-.96-3.19-1.96-4.37-3.02.05-.01.11-.02.18-.04,1.35-.26,3.8-.32,5.79-.35,3.57-.02,7.99-.04,12.35-.04s8,.02,10.92.05c5.15.19,8.16.42,9.79,2.92l.04.06c1.62,2.89,1.14,8.78-.06,13.33-.9,3.73-2.37,4.21-3.56,4.21h0Z"/>
      <path d="M289.46,472.31c-4.66,0-8.61-.02-12.74-.14-6.82-.13-9.11-.66-9.87-.99.38-.35,1.34-1.03,3.66-2.09,4.67-2.08,10.04-4.14,15.23-6.14,2.22-.85,4.38-1.68,6.41-2.48,4.53-1.76,9.24-3.39,12.96-3.39.49,0,.96.03,1.4.09l.19.02c4.83.52,10.95,4.02,16.35,7.11,1.37.78,2.69,1.54,3.94,2.22.39.26,1.08.65,2.02,1.18,1.54.86,5.31,2.98,6.53,4.2-1.3.31-2.92.33-4.51.35-.53,0-1.05.02-1.55.03-3.36.02-7.64.02-12.26.02h-27.75Z"/>
      <path d="M198.51,412.79c-1.97,0-3.57-.5-4.87-1.52-3.68-3.41-4.56-9.42-5.34-14.74-.09-.59-.17-1.17-.26-1.74l-.02-.25c-.15-1.88-.32-4.01.52-5.46.23-.29.65-.66,1.62-.66,2.87,0,7.52,2.98,10.59,4.95.92.59,1.71,1.1,2.36,1.46.89.64,2.05,1.37,3.28,2.15,3.44,2.17,9.18,5.79,8.92,8.21-.96,2.82-7.32,5.24-9.73,6.16-1.99.66-4.63,1.44-7.06,1.44h0Z"/>
      <path d="M274.63,425.15c-1.48,0-4.37-1.14-7.73-3.06-1.34-.79-2.74-1.58-4.22-2.41-4.48-2.51-9.12-5.11-12.57-8.3-2.74-2.53-3.98-6.4-3.68-11.5.47-6.47,1.59-13.57,6.32-17.05,1.72-1.1,3.97-1.66,6.82-1.66,2.3,0,4.7.35,7.01.69.56.08,1.11.16,1.66.24,8.48,1.34,11.85,3.88,12.41,9.4.45,4.12-.09,8.21-.65,12.54-.12.91-.24,1.83-.35,2.76-.24,1.24-.44,3.03-.65,4.92-.52,4.61-1.38,12.32-3.6,13.26l-.14.06-.07.04s-.2.09-.55.09h0Z"/>
      <path d="M212.11,440.05c-2.16,0-4.06-.51-5.8-1.57-4.27-3-9.4-9.79-6.65-14.74,2.82-4.23,8.73-6.58,13.94-8.66.74-.3,1.47-.59,2.17-.88,4.58-1.81,8.47-2.69,11.85-2.69,1.64,0,3.17.21,4.56.63,4.92,1.24,18,8.16,19.27,11.7.08,1.48-2.17,2.56-6.46,4.46l-1.47.65c-4.08,1.7-8.95,3.68-13.66,5.59l-4.23,1.72c-.69.26-1.43.54-2.17.82-3.77,1.45-7.68,2.96-11.36,2.96h0Z"/>
      <path d="M341.38,465.61c-.85,0-1.95-.29-3.27-.86-4.31-1.81-9.27-5.05-13.11-7.67-5.49-3.67-8.76-7.53-8.13-15.49.28-4.79.92-9.81,1.54-14.67.18-1.38.35-2.74.52-4.09.11-.59.23-1.36.35-2.18.43-2.86,1.22-8.13,2.96-8.71.28.02.84.21,1.82,1.21,1.54,1.58,3.14,4.05,4.21,5.78,6.89,11.14,11.93,23.87,14.56,36.81.44,2.26,1.48,7.56.06,9.3-.21.26-.59.59-1.5.59h0Z"/>
      <path d="M303.72,443.54c-1.95,0-4.91-1.25-8.56-3.6-4.84-3.18-7.38-6.4-7.96-10.12-.62-4.09-.03-8.53.55-12.82.19-1.41.38-2.86.53-4.27.18-1.35.35-2.76.53-4.15.56-4.5,1.09-8.76,1.87-11.91.51-2.3,1.77-6.1,4.51-6.1.31,0,.64.05.98.13,5.22,1.49,10.57,5.6,12.97,10l.05.1c2.74,5.28,1.66,13.47.71,20.69-.18,1.4-.36,2.76-.51,4.05l-.26,2.03c-.25,2-.5,3.95-.75,5.75-.15.74-.28,1.61-.4,2.45-.44,3.03-.9,6.17-3.07,7.55-.32.15-.72.22-1.19.22h0Z"/>
      <path d="M248.41,466.29c-5.48,0-11.18-2.02-18.5-6.55-.57-.38-1.29-.83-2.07-1.31-3.51-2.17-8.79-5.45-8.58-8.42.78-3.12,9.78-6.51,15.18-8.54,2.18-.82,4.06-1.53,5.4-2.16,1.31-.51,2.68-1.06,4.05-1.61,3-1.2,6.11-2.44,9.13-3.57,3.78-1.52,7-2.25,9.87-2.25,2.35,0,4.49.47,6.56,1.45,4.11,1.76,8.17,4.12,12.1,6.41,1.2.7,2.39,1.39,3.57,2.06.67.43,1.49.91,2.35,1.41,2.74,1.6,6.14,3.59,6.84,5.48-.08,1.61-6.52,4.08-9.29,5.14-1.38.53-2.68,1.02-3.63,1.47-2.92,1.1-5.91,2.32-8.8,3.51-6.05,2.48-12.31,5.04-18.5,6.69-1.85.54-3.75.81-5.67.81h0Z"/>
    </g>
    <g>
      <path d="M625.29,401.63c1.86,0,4.34-1.32,6.73-2.68,6.15-3.56,13.86-8.16,20.06-11.86l3.27-1.95c.32-.2.67-.41,1.02-.63,1.57-.96,3.19-1.96,4.37-3.02-.05-.01-.11-.02-.18-.04-1.35-.26-3.8-.32-5.79-.35-3.57-.02-7.99-.04-12.35-.04-4.33,0-8,.02-10.92.05-5.15.19-8.16.42-9.79,2.92l-.04.06c-1.62,2.89-1.14,8.78.06,13.33.9,3.73,2.37,4.21,3.56,4.21h0Z"/>
      <path d="M570.23,472.31c4.66,0,8.61-.02,12.74-.14,6.82-.13,9.11-.66,9.87-.99-.38-.35-1.34-1.03-3.66-2.09-4.67-2.08-10.04-4.14-15.23-6.14-2.22-.85-4.38-1.68-6.41-2.48-4.53-1.76-9.24-3.39-12.96-3.39-.49,0-.96.03-1.4.09l-.19.02c-4.83.52-10.95,4.02-16.35,7.11-1.37.78-2.69,1.54-3.94,2.22-.39.26-1.08.65-2.02,1.18-1.54.86-5.31,2.98-6.53,4.2,1.3.31,2.92.33,4.51.35.53,0,1.05.02,1.55.03,3.36.02,7.64.02,12.26.02h27.75Z"/>
      <path d="M661.18,412.79c1.97,0,3.57-.5,4.87-1.52,3.68-3.41,4.56-9.42,5.34-14.74.09-.59.17-1.17.26-1.74l.02-.25c.15-1.88.32-4.01-.52-5.46-.23-.29-.65-.66-1.62-.66-2.87,0-7.52,2.98-10.59,4.95-.92.59-1.71,1.1-2.36,1.46-.89.64-2.05,1.37-3.28,2.15-3.44,2.17-9.18,5.79-8.92,8.21.96,2.82,7.32,5.24,9.73,6.16,1.99.66,4.63,1.44,7.06,1.44h0Z"/>
      <path d="M585.06,425.15c1.48,0,4.37-1.14,7.73-3.06,1.34-.79,2.74-1.58,4.22-2.41,4.48-2.51,9.12-5.11,12.57-8.3,2.74-2.53,3.98-6.4,3.68-11.5-.47-6.47-1.59-13.57-6.32-17.05-1.72-1.1-3.97-1.66-6.82-1.66-2.3,0-4.7.35-7.01.69-.56.08-1.11.16-1.66.24-8.48,1.34-11.85,3.88-12.41,9.4-.45,4.12.09,8.21.65,12.54.12.91.24,1.83.35,2.76.24,1.24.44,3.03.65,4.92.52,4.61,1.38,12.32,3.6,13.26l.14.06.07.04s.2.09.55.09h0Z"/>
      <path d="M647.58,440.05c2.16,0,4.06-.51,5.8-1.57,4.27-3,9.4-9.79,6.65-14.74-2.82-4.23-8.73-6.58-13.94-8.66-.74-.3-1.47-.59-2.17-.88-4.58-1.81-8.47-2.69-11.85-2.69-1.64,0-3.17.21-4.56.63-4.92,1.24-18,8.16-19.27,11.7-.08,1.48,2.17,2.56,6.46,4.46l1.47.65c4.08,1.7,8.95,3.68,13.66,5.59l4.23,1.72c.69.26,1.43.54,2.17.82,3.77,1.45,7.68,2.96,11.36,2.96h0Z"/>
      <path d="M518.31,465.61c.85,0,1.95-.29,3.27-.86,4.31-1.81,9.27-5.05,13.11-7.67,5.49-3.67,8.76-7.53,8.13-15.49-.28-4.79-.92-9.81-1.54-14.67-.18-1.38-.35-2.74-.52-4.09-.11-.59-.23-1.36-.35-2.18-.43-2.86-1.22-8.13-2.96-8.71-.28.02-.84.21-1.82,1.21-1.54,1.58-3.14,4.05-4.21,5.78-6.89,11.14-11.93,23.87-14.56,36.81-.44,2.26-1.48,7.56-.06,9.3.21.26.59.59,1.5.59h0Z"/>
      <path d="M555.98,443.54c1.95,0,4.91-1.25,8.56-3.6,4.84-3.18,7.38-6.4,7.96-10.12.62-4.09.03-8.53-.55-12.82-.19-1.41-.38-2.86-.53-4.27-.18-1.35-.35-2.76-.53-4.15-.56-4.5-1.09-8.76-1.87-11.91-.51-2.3-1.77-6.1-4.51-6.1-.31,0-.64.05-.98.13-5.22,1.49-10.57,5.6-12.97,10l-.05.1c-2.74,5.28-1.66,13.47-.71,20.69.18,1.4.36,2.76.51,4.05l.26,2.03c.25,2,.5,3.95.75,5.75.15.74.28,1.61.4,2.45.44,3.03.9,6.17,3.07,7.55.32.15.72.22,1.19.22h0Z"/>
      <path d="M611.28,466.29c5.48,0,11.18-2.02,18.5-6.55.57-.38,1.29-.83,2.07-1.31,3.51-2.17,8.79-5.45,8.58-8.42-.78-3.12-9.78-6.51-15.18-8.54-2.18-.82-4.06-1.53-5.4-2.16-1.31-.51-2.68-1.06-4.05-1.61-3-1.2-6.11-2.44-9.13-3.57-3.78-1.52-7-2.25-9.87-2.25-2.35,0-4.49.47-6.56,1.45-4.11,1.76-8.17,4.12-12.1,6.41-1.2.7-2.39,1.39-3.57,2.06-.67.43-1.49.91-2.35,1.41-2.74,1.6-6.14,3.59-6.84,5.48.08,1.61,6.52,4.08,9.29,5.14,1.38.53,2.68,1.02,3.63,1.47,2.92,1.1,5.91,2.32,8.8,3.51,6.05,2.48,12.31,5.04,18.5,6.69,1.85.54,3.75.81,5.67.81h0Z"/>
    </g>
    <path d="M457.52,593.63c-8.98-5.24-25.29-5.67-36.31-4.35-6.59,1.03-12.92,1.85-17.23,6.07-5.04,6.23.39,12.41,7.68,16.22,9.01,4.29,19.32,6.25,29.02,3.83,5.38-1.22,11.75-3.48,15.72-6.77,5.44-4.09,7.41-10.79,1.23-14.92l-.11-.08Z"/>
    <path class="cls-3" d="M360.83,504.35h6.34c4.2,0,7.61,3.41,7.61,7.61v4.04h-2.3c-6.43,0-11.64-5.22-11.64-11.64h0Z"/>
    <path d="M495.25,491.99c3.6-2.17,6.99-3.33,9.86-3.05,4.37.37,8.52,3.64,9.17,8.07,1.1,8.51-7.71,21.03-13.3,28.64-3.71,5.09-7.61,10.53-11.37,15.59-11.41,15.26-16.28,13.85-18.18-2.77-.58-4.98-.56-10.32.64-15.28,2.98-12.98,11.53-24.39,23.04-31.12l.14-.08Z"/>
    <path class="cls-3" d="M500.23,504.35h2.3v4.04c0,4.2-3.41,7.61-7.61,7.61h-6.34c0-6.43,5.22-11.64,11.64-11.64Z" transform="translate(991.11 1020.33) rotate(180)"/>
    <path d="M432.46,579.04c6.43,0,12.56-2.93,16.41-8.07,4.39-5.87,6.81-13.82,7.65-20.77,2.98-24.48,8.25-50.06,27.11-67.43,7.33-7.63,16.03-14.76,19.83-24.93,4.26-10.33.76-22.45,3.32-32.72,1.69-6.97,6.65-12.5,12.22-16.81,51.86-37.42,126.59-76.05,166.65-116.47,23.31-23.82,21.41-75.46,2.75-108.15-4.06-7.11-15.01-3.01-13.48,5.03,4.93,25.92,8.77,63.19-5.4,78.91-5.13,6.98-16.01,18.17-25.04,13.97-6.48-7.17-.95-19.26-1.18-28.1,1.25-13.08-1.63-31.35-3.98-40.82-2.9-13.38-24.92-73.02-47.59-66.63-15.07,15.16,49.39,69.51,18.04,138.09-10.24,22.44-28.38,39.05-47.37,54.42-3.61,2.04-17.95,16.7-19.52,10.76.74-10.94,3.45-23.99-4.7-33.01-6.43-8.77-19.69-4.56-20.55,6.04-1.11,7.45,1.24,15.02-.14,22.49-4.12,19.53-16.51,37.99-33.36,48.49l-.15.1c-14.29,8.72-28.4,18.88-44.19,22.9-2.08.43-4.75.76-7.81.72-3.06.04-5.73-.29-7.81-.72-15.8-4.02-29.9-14.18-44.19-22.9l-.15-.1c-16.85-10.5-29.23-28.95-33.36-48.49-1.38-7.47.97-15.05-.14-22.49-.86-10.6-14.12-14.81-20.55-6.04-8.15,9.01-5.44,22.07-4.7,33.01-1.57,5.94-15.91-8.72-19.52-10.76-18.98-15.37-37.13-31.99-47.37-54.42-31.35-68.58,33.1-122.93,18.04-138.09-22.67-6.39-44.69,53.25-47.59,66.63-2.35,9.47-5.23,27.75-3.98,40.82-.23,8.84,5.3,20.93-1.18,28.1-9.03,4.2-19.9-6.99-25.04-13.97-14.18-15.72-10.33-53-5.4-78.91,1.53-8.04-9.42-12.14-13.48-5.03-18.66,32.68-20.56,84.33,2.75,108.15,40.06,40.42,114.79,79.05,166.65,116.47,5.56,4.31,10.53,9.83,12.22,16.81,2.56,10.27-.94,22.39,3.32,32.72,3.8,10.17,12.5,17.3,19.83,24.93,18.86,17.37,24.13,42.96,27.11,67.43.84,6.94,3.26,14.9,7.65,20.77,3.85,5.15,9.98,8.07,16.41,8.07h.98Z"/>
  </g>
</svg>