<?xml version="1.0" encoding="UTF-8"?>
<svg id="Layer_12" data-name="Layer 12" xmlns="http://www.w3.org/2000/svg" viewBox="0 0 846.22 846.22">
  <defs>
    <style>
      .cls-1 {
        font-family: ManifoldDSA-Heavy, 'Manifold DSA';
        font-size: 74.04px;
        font-weight: 800;
        letter-spacing: .05em;
      }

      .cls-2 {
        stroke: #000;
        stroke-linejoin: round;
        stroke-width: 3px;
      }
    </style>
  </defs>
  <g>
    <path class="cls-2" d="M121.2,600.13c-12.67,0-24.16-5.09-30-13.29-.3-.46-.68-.99-1.06-1.51-2.07-2.88-2.26-3.62-1.66-4.39,1.87-1.67,4.47-3.3,6.99-4.87,1.25-.78,2.43-1.51,3.49-2.24.74-.47,1.37-.72,1.81-.72.14,0,.46,0,.97.5.68.61,1.28,1.19,1.89,1.78,1.33,1.28,2.71,2.61,4.3,3.71,2.94,2.12,6.22,3.53,9.72,4.18,1.2.22,2.4.32,3.57.32,6.61,0,12.03-3.47,12.91-8.26.41-2.22.27-7.8-9.67-11.55-1.85-.74-3.76-1.44-5.79-2.18-6.94-2.54-14.11-5.18-19.31-9.55l-.1-.08c-8.84-6.58-10.97-19.29-4.86-28.92,5.29-8.16,15.01-12.85,26.67-12.85,9.81,0,19.45,3.49,25.78,9.33,2.84,2.68,4.31,4.43,5.76,6.88.13.29.13.41.13.41-.06.23-.58.77-1.54,1.61-2.36,1.81-5.54,4.05-8.1,5.85l-.74.52c-.68.42-1.42.89-1.95.95-.69-.07-1.38-.66-2.41-1.6-.41-.38-.84-.77-1.31-1.14-3.2-2.99-8.74-6.01-13.28-6.07-.37-.03-.74-.04-1.11-.04-3.5,0-6.67,1.1-8.92,3.1-2.55,2.09-4.1,5.82-1.98,8.8,2.59,3.47,7.32,5.32,11.13,6.81l1.11.43c16.61,5.84,32.54,13.08,29.72,31.66-2.9,16.54-19.14,22.43-32.16,22.43h0Z"/>
    <path class="cls-2" d="M221.77,599.29c-2.22,0-4.48-.01-6.67-.03-2.07-.01-4.08-.02-5.94-.02h-.63c-.55,0-.85-.04-1.01-.06-.11-.24-.28-.68-.42-1.07-.1-.26-2.42-6.54-2.42-6.54-1.61-4.31-3.72-10.03-5.88-15.91-3.14-8.55-6.39-17.39-8.43-22.66l-.05-.13-.07-.13c-.66-1.22-1.7-1.35-2.12-1.35-.37,0-2.2.13-2.35,2.62-.14,1.98-.08,7.83-.02,15.23.1,10.75.21,23.92-.22,29.98-.72.04-1.75.04-2.68.04h-14.05c-.41,0-1.01,0-1.52-.03-.08-13.86-.02-76.06,0-88.02.17,0,.35,0,.53,0,.32,0,.67.01,1.04.01s.74,0,1.13-.03h14.43c1.34,0,2.67,0,4,.01.78,0,1.17.04,1.36.08.12.24.28.69.43,1.09l.09.23c2.02,5.29,4.3,11.54,6.72,18.16,3.58,9.78,7.27,19.9,10.21,27.13l4.33-.71c.18-3.01.14-16.3.11-28.02-.02-7.6-.04-14.79,0-17.93.3-.02.64-.02.94-.03h.44c1.87,0,4.8-.01,7.75-.01s6.17,0,8.13,0c.45.03.86.04,1.22.04.02,8.37.02,42.84.01,66.07,0,10.08,0,18.29,0,21.86-2.23.07-4.94.11-8.39.11Z"/>
    <path class="cls-2" d="M258.21,599.27c-3.29,0-6.6,0-8.56,0-.22-.02-.45-.03-.7-.03h-.11c.04-4.7,0-14.62-.05-25.92-.1-22.74-.23-53.25.19-62.07.3,0,.58,0,.74-.01h9.68c2.81,0,5.49,0,7.13.01.21,0,.47.01.7.03.09,2.77.07,6.87.06,11.57-.01,3.2-.02,6.63,0,9.99,0,1.74,0,3.39,0,4.87,0,2.56-.01,4.59.06,5.8.14,1.6.76,2.68,1.84,3.28,1.17.6,2.37.63,3.33.65.18,0,.61.02.61.02h.08c.68-.02,1.42-.03,2.21-.03,1.3,0,2.72.02,4.17.04,1.55.02,3.15.05,4.69.05,3.24,0,5.55-.11,7.25-.35l.24-.03.23-.09c2.36-.88,2.41-3.25,2.42-4.26,0-.14,0-.28.01-.42v-.12c.01-2.76,0-7.94,0-13.36,0-6.99,0-14.37.01-17.46v-.14c.29-.02.6-.02.84-.02h.43c.77.02,1.61.02,2.49.02,1.4,0,2.92-.02,4.47-.04,1.62-.02,3.28-.05,4.89-.05,2.2,0,3.95.05,5.37.15,0,.24,0,.5,0,.78,0,.51-.01,1.07,0,1.7,0,0,0,80.93,0,85.44-.25,0-.51.01-.79.03-1.41,0-3.56,0-5.9,0h-9.42c-.86,0-1.78-.01-2.36-.06-.06-.57-.04-1.34-.02-2.29.02-.9.04-2.03,0-3.34v-24.32c0-2.48-.01-5.56-4.32-5.79-1.29-.06-2.54-.07-3.49-.07h-3.26s-1.12,0-1.12,0c-.51,0-1.02,0-1.54,0h-4.85c-1.86-.01-3.13,0-4.09.05-4.04.06-4.47,3.04-4.46,4.32-.04,2.93-.04,10.18-.03,17.19,0,4.13,0,8.21,0,11.36v.91c.02.72.03,1.5-.01,1.98-.15.01-.36.02-.65.02h-.38c-1.97,0-4.99,0-8.02,0Z"/>
  </g>
  <g>
    <path class="cls-2" d="M567.53,599.3c-2.64,0-5.29-.03-7.82-.05-2.32-.02-4.54-.04-6.55-.04-1.36,0-2.62,0-3.76.03-.04-8.66-.03-40.63-.02-64.41v-23.45s0-.13,0-.16c.17,0,.36,0,.56-.02.83,0,1.89.01,3.04.01,1.91,0,4.08,0,6.34-.01,2.46,0,5.03-.02,7.5-.02,3.73,0,6.45.02,8.55.05h.32c24.49,0,38.14,12.74,39.47,36.85,1.53,17.25-1.72,30.99-9.37,39.81-5.84,6.73-14.18,10.43-24.77,10.99-3.38.28-7.64.41-13.48.41ZM575.22,527.17c-.67,0-1.33,0-2,.03,0,0-.46.03-.63.04-1.21.06-4.44.22-4.68,3.53v.14c-.04,3.91-.03,16.43-.03,27.48,0,6.1,0,11.77,0,15.33.06,1.44.02,2.55-.02,3.44-.08,1.84-.14,3.42,1.05,4.66,1.21,1.26,3.07,1.37,5.02,1.37.58,0,1.25-.01,2.02-.04h.19c8.49-.06,17.51-1.96,19.79-15.58,1.7-10.64,1.34-20.63-1.02-28.91-2.92-10.18-12.06-11.48-19.69-11.48Z"/>
    <path class="cls-2" d="M654.82,600.13c-12.67,0-24.16-5.09-30-13.29-.3-.46-.68-.99-1.06-1.51-2.07-2.88-2.26-3.62-1.66-4.39,1.87-1.67,4.47-3.3,6.99-4.87,1.25-.78,2.43-1.51,3.49-2.24.74-.47,1.37-.72,1.81-.72.14,0,.46,0,.97.5.68.61,1.28,1.19,1.89,1.77,1.33,1.28,2.71,2.61,4.3,3.72,2.94,2.12,6.22,3.53,9.72,4.18,1.2.22,2.4.32,3.57.32,6.61,0,12.03-3.47,12.91-8.26.41-2.22.27-7.8-9.67-11.55-1.84-.74-3.76-1.44-5.79-2.18-6.94-2.54-14.11-5.18-19.31-9.55l-.1-.08c-8.84-6.58-10.97-19.29-4.86-28.92,5.29-8.16,15.01-12.85,26.67-12.85,9.81,0,19.45,3.49,25.78,9.33,2.84,2.68,4.31,4.43,5.76,6.88.13.29.13.41.13.41-.06.22-.58.77-1.54,1.61-2.36,1.81-5.54,4.05-8.1,5.85l-.74.52c-.68.42-1.42.89-1.95.95-.69-.07-1.38-.66-2.41-1.6-.41-.38-.84-.77-1.31-1.14-3.2-2.99-8.74-6.01-13.28-6.07-.37-.03-.74-.04-1.11-.04-3.5,0-6.67,1.1-8.92,3.1-2.55,2.09-4.1,5.82-1.98,8.8,2.59,3.47,7.32,5.32,11.13,6.81l1.11.43c16.61,5.84,32.54,13.08,29.72,31.66-2.9,16.54-19.14,22.43-32.16,22.43h0Z"/>
    <path class="cls-2" d="M757.87,599.33c-3.01,0-5.17-.09-6.77-.28-.15-.21-.36-.86-.49-1.27l-.07-.21c-.37-1.22-.77-2.8-1.2-4.48-.61-2.4-1.25-4.89-1.89-6.68-1.12-3.51-4.53-3.51-5.98-3.51h-.36c-.85.02-1.76.03-2.72.03-1.51,0-3.17-.02-4.87-.04-1.83-.02-3.71-.04-5.53-.04-3.62,0-6.21.08-8.15.26l-.16.02-.16.04c-2.56.62-3.29,2.95-3.73,4.34l-.06.2c-.39,1.33-.86,3.12-1.33,4.93-.5,1.91-1.01,3.88-1.4,5.17-.09.27-.33,1.05-.53,1.28-1.63.15-3.82.22-6.86.22-1.73,0-3.51-.02-5.21-.04-1.58-.02-3.11-.04-4.46-.04-.84,0-1.63,0-2.32.03,3.7-14.42,19.14-67.57,25.62-88.03.13,0,1.03,0,1.03,0,.94.02,2.16.03,3.51.03,2,0,4.3-.02,6.67-.04,2.5-.02,5.08-.05,7.47-.05,2.89,0,5.05.03,6.62.11,2.64,7.09,11.13,37.1,17.45,59.43,3.69,13.03,6.71,23.72,8.19,28.56h0c-.73-.03-1.56-.04-2.46-.04-1.38,0-2.93.03-4.55.05-1.73.03-3.53.06-5.28.06ZM729.73,535.14c-1.39,4.19-3.87,13.6-5.68,20.47-.84,3.18-1.56,5.93-1.91,7.16l-.03.11-.02.11c-.32,1.74.17,2.96,1.43,3.64l.29.16.33.07c1.19.25,2.62.36,4.66.36.86,0,1.75-.02,2.62-.04.81-.02,1.61-.04,2.37-.04.49,0,.96,0,1.4.03h.13s.13,0,.13,0c.24-.02.46-.02.68-.02.27,0,.52,0,.76.01.26,0,.5.01.74.01.71,0,2.39,0,3.56-1.37l.65-.76-.13-.99c-.41-3.19-1.87-8.34-3.43-13.79-.97-3.41-1.98-6.94-2.7-9.93-.28-1-.49-1.81-.68-2.51-.75-2.84-1.06-4.01-2.75-4.2h-.12s-1.75-.01-1.75-.01l-.53,1.54Z"/>
  </g>
  <text class="cls-1" transform="translate(839.22 516.75)"><tspan x="0" y="0"> </tspan></text>
  <path d="M535.47,661.27c1.32-5.49-2.61-18.04-4.26-25.37-3.6-14.56-7.62-30.89-10.83-43.96-3.12-11.69-4.5-23.49-4.44-35.56-.36-9.12.56-22.81-7.14-16.06-5.4,5.02-14.72,16.89-20.11,24.68-7.08,10.19-8.74,20.26-12.48,31.74-4.46,12.72-12.96,26.9-23.92,34.65-9.7,7.05-25.99,7.3-36.83,3.44-9.04-3.63-15.81-11.46-21.13-19.44-4.01-6.2-7.24-12.93-9.42-19.4-2.64-7.74-3.57-14.04-7.05-21.67-2.73-6.08-6.55-11.63-10.68-16.89-4.8-6.03-11.17-14.25-14.77-17.25-.89-.75-1.74-1.33-2.72-1.62-5.02-1.26-3.9,13.99-4.24,17.33-.07,4.75-.18,9.52-.56,14.23-.62,8.46-2.85,17.89-5.45,28.2-2.72,11.07-5.83,23.6-8.59,34.84-1.84,7.95-4.2,15.52-5.13,23.41-1.04,6.6,3.35,10.76,8.8,15.15,19.14,15.53,44.74,36.27,64.93,52.6,5.31,4.22,11.9,9.84,16.42,13.04,4.29,2.93,7.95,5.21,12.69,6.08,11.14,2.05,26.51-14.25,36.43-21.58,15.87-12.83,34.47-27.92,49.91-40.41,3.99-3.23,7.87-6.36,11.76-9.54,5.06-4.2,7.96-6.87,8.81-10.56l.02-.08Z"/>
  <g>
    <path d="M233.35,404.93c-1.86,0-4.34-1.32-6.73-2.68-6.15-3.56-13.86-8.16-20.06-11.86l-3.27-1.95c-.32-.2-.67-.41-1.02-.63-1.57-.96-3.19-1.96-4.37-3.02.05-.01.11-.02.18-.04,1.35-.26,3.8-.32,5.79-.35,3.57-.02,7.99-.04,12.35-.04s8,.02,10.92.05c5.15.19,8.16.42,9.79,2.92l.04.06c1.62,2.89,1.14,8.78-.06,13.33-.9,3.73-2.37,4.21-3.56,4.21h0Z"/>
    <path d="M288.42,475.61c-4.66,0-8.61-.02-12.74-.14-6.82-.13-9.11-.66-9.87-.99.38-.35,1.34-1.03,3.66-2.09,4.67-2.08,10.04-4.14,15.23-6.14,2.22-.85,4.38-1.68,6.41-2.48,4.53-1.76,9.24-3.39,12.96-3.39.49,0,.96.03,1.4.09l.19.02c4.83.52,10.95,4.02,16.35,7.11,1.37.78,2.69,1.54,3.94,2.22.39.26,1.08.65,2.02,1.18,1.54.86,5.31,2.98,6.53,4.2-1.3.31-2.92.33-4.51.35-.53,0-1.05.02-1.55.03-3.36.02-7.64.02-12.26.02h-27.75Z"/>
    <path d="M197.47,416.09c-1.97,0-3.57-.5-4.87-1.52-3.68-3.41-4.56-9.42-5.34-14.74-.09-.59-.17-1.17-.26-1.74l-.02-.25c-.15-1.88-.32-4.01.52-5.46.23-.29.65-.66,1.62-.66,2.87,0,7.52,2.98,10.59,4.95.92.59,1.71,1.1,2.36,1.46.89.64,2.05,1.37,3.28,2.15,3.44,2.17,9.18,5.79,8.92,8.21-.96,2.82-7.32,5.24-9.73,6.16-1.99.66-4.63,1.44-7.06,1.44h0Z"/>
    <path d="M273.59,428.45c-1.48,0-4.37-1.14-7.73-3.06-1.34-.79-2.74-1.58-4.22-2.41-4.48-2.51-9.12-5.11-12.57-8.3-2.74-2.53-3.98-6.4-3.68-11.5.47-6.47,1.59-13.57,6.32-17.05,1.72-1.1,3.97-1.66,6.82-1.66,2.3,0,4.7.35,7.01.69.56.08,1.11.16,1.66.24,8.48,1.34,11.85,3.88,12.41,9.4.45,4.12-.09,8.21-.65,12.54-.12.91-.24,1.83-.35,2.76-.24,1.24-.44,3.03-.65,4.92-.52,4.61-1.38,12.32-3.6,13.26l-.14.06-.07.04s-.2.09-.55.09h0Z"/>
    <path d="M211.07,443.35c-2.16,0-4.06-.51-5.8-1.57-4.27-3-9.4-9.79-6.65-14.74,2.82-4.23,8.73-6.58,13.94-8.66.74-.3,1.47-.59,2.17-.88,4.58-1.81,8.47-2.69,11.85-2.69,1.64,0,3.17.21,4.56.63,4.92,1.24,18,8.16,19.27,11.7.08,1.48-2.17,2.56-6.46,4.46l-1.47.65c-4.08,1.7-8.95,3.68-13.66,5.59l-4.23,1.72c-.69.26-1.43.54-2.17.82-3.77,1.45-7.68,2.96-11.36,2.96h0Z"/>
    <path d="M340.34,468.91c-.85,0-1.95-.29-3.27-.86-4.31-1.81-9.27-5.05-13.11-7.67-5.49-3.67-8.76-7.53-8.13-15.49.28-4.79.92-9.81,1.54-14.67.18-1.38.35-2.74.52-4.09.11-.59.23-1.36.35-2.18.43-2.86,1.22-8.13,2.96-8.71.28.02.84.21,1.82,1.21,1.54,1.58,3.14,4.05,4.21,5.78,6.89,11.14,11.93,23.87,14.56,36.81.44,2.26,1.48,7.56.06,9.3-.21.26-.59.59-1.5.59h0Z"/>
    <path d="M302.67,446.84c-1.95,0-4.91-1.25-8.56-3.6-4.84-3.18-7.38-6.4-7.96-10.12-.62-4.09-.03-8.53.55-12.82.19-1.41.38-2.86.53-4.27.18-1.35.35-2.76.53-4.15.56-4.5,1.09-8.76,1.87-11.91.51-2.3,1.77-6.1,4.51-6.1.31,0,.64.05.98.13,5.22,1.49,10.57,5.6,12.97,10l.05.1c2.74,5.28,1.66,13.47.71,20.69-.18,1.4-.36,2.76-.51,4.05l-.26,2.03c-.25,2-.5,3.95-.75,5.75-.15.74-.28,1.61-.4,2.45-.44,3.03-.9,6.17-3.07,7.55-.32.15-.72.22-1.19.22h0Z"/>
    <path d="M247.37,469.58c-5.48,0-11.18-2.02-18.5-6.55-.57-.38-1.29-.83-2.07-1.31-3.51-2.17-8.79-5.45-8.58-8.42.78-3.12,9.78-6.51,15.18-8.54,2.18-.82,4.06-1.53,5.4-2.16,1.31-.51,2.68-1.06,4.05-1.61,3-1.2,6.11-2.44,9.13-3.57,3.78-1.52,7-2.25,9.87-2.25,2.35,0,4.49.47,6.56,1.45,4.11,1.76,8.17,4.12,12.1,6.41,1.2.7,2.39,1.39,3.57,2.06.67.43,1.49.91,2.35,1.41,2.74,1.6,6.14,3.59,6.84,5.48-.08,1.61-6.52,4.08-9.29,5.14-1.38.53-2.68,1.02-3.63,1.47-2.92,1.1-5.91,2.32-8.8,3.51-6.05,2.48-12.31,5.04-18.5,6.69-1.85.54-3.75.81-5.67.81h0Z"/>
  </g>
  <g>
    <path d="M624.25,404.93c1.86,0,4.34-1.32,6.73-2.68,6.15-3.56,13.86-8.16,20.06-11.86l3.27-1.95c.32-.2.67-.41,1.02-.63,1.57-.96,3.19-1.96,4.37-3.02-.05-.01-.11-.02-.18-.04-1.35-.26-3.8-.32-5.79-.35-3.57-.02-7.99-.04-12.35-.04-4.33,0-8,.02-10.92.05-5.15.19-8.16.42-9.79,2.92l-.04.06c-1.62,2.89-1.14,8.78.06,13.33.9,3.73,2.37,4.21,3.56,4.21h0Z"/>
    <path d="M569.19,475.61c4.66,0,8.61-.02,12.74-.14,6.82-.13,9.11-.66,9.87-.99-.38-.35-1.34-1.03-3.66-2.09-4.67-2.08-10.04-4.14-15.23-6.14-2.22-.85-4.38-1.68-6.41-2.48-4.53-1.76-9.24-3.39-12.96-3.39-.49,0-.96.03-1.4.09l-.19.02c-4.83.52-10.95,4.02-16.35,7.11-1.37.78-2.69,1.54-3.94,2.22-.39.26-1.08.65-2.02,1.18-1.54.86-5.31,2.98-6.53,4.2,1.3.31,2.92.33,4.51.35.53,0,1.05.02,1.55.03,3.36.02,7.64.02,12.26.02h27.75Z"/>
    <path d="M660.13,416.09c1.97,0,3.57-.5,4.87-1.52,3.68-3.41,4.56-9.42,5.34-14.74.09-.59.17-1.17.26-1.74l.02-.25c.15-1.88.32-4.01-.52-5.46-.23-.29-.65-.66-1.62-.66-2.87,0-7.52,2.98-10.59,4.95-.92.59-1.71,1.1-2.36,1.46-.89.64-2.05,1.37-3.28,2.15-3.44,2.17-9.18,5.79-8.92,8.21.96,2.82,7.32,5.24,9.73,6.16,1.99.66,4.63,1.44,7.06,1.44h0Z"/>
    <path d="M584.02,428.45c1.48,0,4.37-1.14,7.73-3.06,1.34-.79,2.74-1.58,4.22-2.41,4.48-2.51,9.12-5.11,12.57-8.3,2.74-2.53,3.98-6.4,3.68-11.5-.47-6.47-1.59-13.57-6.32-17.05-1.72-1.1-3.97-1.66-6.82-1.66-2.3,0-4.7.35-7.01.69-.56.08-1.11.16-1.66.24-8.48,1.34-11.85,3.88-12.41,9.4-.45,4.12.09,8.21.65,12.54.12.91.24,1.83.35,2.76.24,1.24.44,3.03.65,4.92.52,4.61,1.38,12.32,3.6,13.26l.14.06.07.04s.2.09.55.09h0Z"/>
    <path d="M646.54,443.35c2.16,0,4.06-.51,5.8-1.57,4.27-3,9.4-9.79,6.65-14.74-2.82-4.23-8.73-6.58-13.94-8.66-.74-.3-1.47-.59-2.17-.88-4.58-1.81-8.47-2.69-11.85-2.69-1.64,0-3.17.21-4.56.63-4.92,1.24-18,8.16-19.27,11.7-.08,1.48,2.17,2.56,6.46,4.46l1.47.65c4.08,1.7,8.95,3.68,13.66,5.59l4.23,1.72c.69.26,1.43.54,2.17.82,3.77,1.45,7.68,2.96,11.36,2.96h0Z"/>
    <path d="M517.27,468.91c.85,0,1.95-.29,3.27-.86,4.31-1.81,9.27-5.05,13.11-7.67,5.49-3.67,8.76-7.53,8.13-15.49-.28-4.79-.92-9.81-1.54-14.67-.18-1.38-.35-2.74-.52-4.09-.11-.59-.23-1.36-.35-2.18-.43-2.86-1.22-8.13-2.96-8.71-.28.02-.84.21-1.82,1.21-1.54,1.58-3.14,4.05-4.21,5.78-6.89,11.14-11.93,23.87-14.56,36.81-.44,2.26-1.48,7.56-.06,9.3.21.26.59.59,1.5.59h0Z"/>
    <path d="M554.93,446.84c1.95,0,4.91-1.25,8.56-3.6,4.84-3.18,7.38-6.4,7.96-10.12.62-4.09.03-8.53-.55-12.82-.19-1.41-.38-2.86-.53-4.27-.18-1.35-.35-2.76-.53-4.15-.56-4.5-1.09-8.76-1.87-11.91-.51-2.3-1.77-6.1-4.51-6.1-.31,0-.64.05-.98.13-5.22,1.49-10.57,5.6-12.97,10l-.05.1c-2.74,5.28-1.66,13.47-.71,20.69.18,1.4.36,2.76.51,4.05l.26,2.03c.25,2,.5,3.95.75,5.75.15.74.28,1.61.4,2.45.44,3.03.9,6.17,3.07,7.55.32.15.72.22,1.19.22h0Z"/>
    <path d="M610.24,469.58c5.48,0,11.18-2.02,18.5-6.55.57-.38,1.29-.83,2.07-1.31,3.51-2.17,8.79-5.45,8.58-8.42-.78-3.12-9.78-6.51-15.18-8.54-2.18-.82-4.06-1.53-5.4-2.16-1.31-.51-2.68-1.06-4.05-1.61-3-1.2-6.11-2.44-9.13-3.57-3.78-1.52-7-2.25-9.87-2.25-2.35,0-4.49.47-6.56,1.45-4.11,1.76-8.17,4.12-12.1,6.41-1.2.7-2.39,1.39-3.57,2.06-.67.43-1.49.91-2.35,1.41-2.74,1.6-6.14,3.59-6.84,5.48.08,1.61,6.52,4.08,9.29,5.14,1.38.53,2.68,1.02,3.63,1.47,2.92,1.1,5.91,2.32,8.8,3.51,6.05,2.48,12.31,5.04,18.5,6.69,1.85.54,3.75.81,5.67.81h0Z"/>
  </g>
  <path d="M456.48,596.93c-8.98-5.24-25.29-5.67-36.31-4.35-6.59,1.03-12.92,1.85-17.23,6.07-5.04,6.23.39,12.41,7.68,16.22,9.01,4.29,19.32,6.25,29.02,3.83,5.38-1.22,11.75-3.48,15.72-6.77,5.44-4.09,7.41-10.79,1.23-14.92l-.11-.08Z"/>
  <path d="M391.01,527.11c-3.04-13.22-11.74-24.83-23.46-31.68l-.14-.08c-3.67-2.21-7.12-3.39-10.04-3.1-4.45.38-8.67,3.7-9.34,8.22-1.12,8.66,7.85,21.41,13.54,29.16,3.78,5.18,7.75,10.72,11.57,15.88,11.61,15.54,16.58,14.1,18.51-2.82.59-5.07.57-10.51-.65-15.56ZM373.74,519.29h-2.3c-6.43,0-11.64-5.21-11.64-11.64h6.34c4.2,0,7.61,3.41,7.61,7.61v4.04Z"/>
  <path d="M513.24,500.31c-.65-4.43-4.8-7.7-9.17-8.07-2.87-.28-6.26.88-9.86,3.05l-.14.08c-11.51,6.73-20.06,18.14-23.04,31.12-1.2,4.96-1.21,10.3-.64,15.28,1.9,16.62,6.77,18.04,18.18,2.77,3.75-5.06,7.66-10.51,11.37-15.59,5.59-7.61,14.39-20.14,13.3-28.64ZM489.84,519.29h-2.3v-4.04c0-4.2,3.41-7.61,7.61-7.61h6.34c0,6.43-5.21,11.64-11.64,11.64Z"/>
  <path d="M431.42,582.34c6.43,0,12.56-2.93,16.41-8.07,4.39-5.87,6.81-13.82,7.65-20.77,2.98-24.48,8.25-50.06,27.11-67.43,7.33-7.63,16.03-14.76,19.83-24.93,4.26-10.33.76-22.45,3.32-32.72,1.69-6.97,6.65-12.5,12.22-16.81,51.86-37.42,126.59-76.05,166.65-116.47,23.31-23.82,21.41-75.46,2.75-108.15-4.06-7.11-15.01-3.01-13.48,5.03,4.93,25.92,8.77,63.19-5.4,78.91-5.13,6.98-16.01,18.17-25.04,13.97-6.48-7.17-.95-19.26-1.18-28.1,1.25-13.08-1.63-31.35-3.98-40.82-2.9-13.38-24.92-73.02-47.59-66.63-15.07,15.16,49.39,69.51,18.04,138.09-10.24,22.44-28.38,39.05-47.37,54.42-3.61,2.04-17.95,16.7-19.52,10.76.74-10.94,3.45-23.99-4.7-33.01-6.43-8.77-19.69-4.56-20.55,6.04-1.11,7.45,1.24,15.02-.14,22.49-4.12,19.53-16.51,37.99-33.36,48.49l-.15.1c-14.29,8.72-28.4,18.88-44.19,22.9-2.08.43-4.75.76-7.81.72-3.06.04-5.73-.29-7.81-.72-15.8-4.02-29.9-14.18-44.19-22.9l-.15-.1c-16.85-10.5-29.23-28.95-33.36-48.49-1.38-7.47.97-15.05-.14-22.49-.86-10.6-14.12-14.81-20.55-6.04-8.15,9.01-5.44,22.07-4.7,33.01-1.57,5.94-15.91-8.72-19.52-10.76-18.98-15.37-37.13-31.99-47.37-54.42-31.35-68.58,33.1-122.93,18.04-138.09-22.67-6.39-44.69,53.25-47.59,66.63-2.35,9.47-5.23,27.75-3.98,40.82-.23,8.84,5.3,20.93-1.18,28.1-9.03,4.2-19.9-6.99-25.04-13.97-14.18-15.72-10.33-53-5.4-78.91,1.53-8.04-9.42-12.14-13.48-5.03-18.66,32.68-20.56,84.33,2.75,108.15,40.06,40.42,114.79,79.05,166.65,116.47,5.56,4.31,10.53,9.83,12.22,16.81,2.56,10.27-.94,22.39,3.32,32.72,3.8,10.17,12.5,17.3,19.83,24.93,18.86,17.37,24.13,42.96,27.11,67.43.84,6.94,3.26,14.9,7.65,20.77,3.85,5.15,9.98,8.07,16.41,8.07h.98Z"/>
  <path d="M610.57,246.77c-3.65-7.39-9.44-13.55-14.23-20.21-10.09-12.53-9.53-29.04-13.15-44.19-7.87-30.53-35.12-57.12-67.3-59.21-16.44-1.3-33.25,3-49.47,2.36-13.58-.48-26.55-4.46-40.23-4.81-14.53-.47-28.48,1.77-42.8,1.7-32.09-.49-66.5,5.7-91.03,27.44-19.63,17.73-23.99,35.18-24.02,60.77-.32,8.79-1.65,17.61-4.33,26.06-3.72,12.15-9.52,23.57-11.77,35.98-4.8,22.99,4.85,51.39,29.58,57.62,27.74,7.25,53.72-14.52,65.55,23.76,7.38,25.06,8.64,43.1,34.04,57.18,38.88,21.35,94.43,13.13,121.63-22.85,8.59-11.5,10.53-26.32,14.89-39.66,3.97-12.42,12.96-20.22,25.91-21.24,16.92-1.13,29.88-.16,45.13-10.01,23.55-13.91,34.2-45.85,21.71-70.49l-.09-.19ZM488.06,134.95c32.64-12.65,73.5,18.29,82.42,51.83,3.94,15.47-6.59,24.13-19.44,13.05-4.49-3.8-8.3-8.54-12.33-12.85-11.99-13.2-27.07-25.25-43.07-35.58-5.17-3.54-15.83-10.85-7.71-16.37l.13-.08ZM484.22,176.51c13.56-9.61,20.29,1.44,14.25,13.99-3.26,6.67-8.93,12.09-14.84,16.53-14.3,11.03-32.86,14.88-49.07,5.44-4.13-2.35-14.61-9.37-9.91-14.1,2.55-2.19,9.5-2.29,16.19-2.86,17.91-1.33,29.34-8.31,43.19-18.87l.19-.12ZM434.66,228.21c8.64,1.95,17.69,1.54,26.15-1.01,6.56-1.84,15.21-6.15,20.74-5.47,6.46.71,7.71,6.94,5.58,13.42-3.18,9.5-11.73,16.26-20.81,20.31-40.99,18.53-89.34-6.04-105.66-45.19-3.28-7.65-5.91-16.35-4.82-24.67,1.08-10.07,9.65-16.45,19.19-11.15,5.64,3.06,9.72,8.36,13.31,13.59,11.81,19.1,22.82,34.88,46.11,40.13l.22.05ZM423.84,165.32c9.4-4.98,20.75-5.49,30.89-2.45,3.31.99,6.46,2.38,8.76,4.04,3.9,2.67,5.46,6.69,2.34,10.1-4.21,4.85-15.2,7.29-22.53,7.61-8.14.52-22.62-1.04-26.56-7.01-3.03-5.23,2.35-9.61,6.89-12.16l.21-.11ZM371.33,145.23c25.39-18.36,79.64-19.52,104.09,1.29,5.37,5.56-1.07,5.67-5.6,4.74-13.43-3.08-26.01-5.96-39.66-1.15-10.34,3.26-19.58,9.96-29.75,12.89-7.35,2.16-15.37,2.36-22.78.4-9.69-2.36-16.42-9.94-6.45-18.04l.16-.13ZM360.35,135c8.55,4.49-9.73,19.6-13.38,23.78-17.36,17.27-31.97,36.11-40.9,54.75-2.72,4.74-6.2,17.75-12.99,15.65-7.41-4.06-9.41-17.85-9.63-26-.3-34.84,32.92-60.28,65.24-68,3.6-.82,8.65-1.49,11.55-.22l.11.05ZM295.98,322.59c-24.61-5.9-32.29-38.16-25.53-60.14,5.92-21.68,22.74-28.49,31.71-3.87,3.84,10.65,6.43,21.76,10.99,32.16,3.12,7.82,6.79,15.24,4.51,22.29-3,8.34-13.43,11.09-21.47,9.6l-.21-.04ZM353.73,322.79c-22.55-4.4-34.89-27.69-37.73-49.27-2.11-18.41,2.38-44.36,15.83-58.27,9.7-8.76,18.14.81,23.59,9.5,16.12,27.51,43.1,45.08,75.34,48.97,12.58,1.54,30.11,3.44,13.19,17.86-10.91,8.62-23.41,15.58-35.82,21.97-17.45,8.99-35.33,13.66-54.19,9.29l-.21-.05ZM498.38,372.96c-5.46,8.98-14.75,15.53-23.75,20.66-27.08,15.29-61.87,15.84-89.31,1.2-6.92-3.77-14.24-8.84-18.46-15.46-4.03-6.39-1.77-11.07,6.09-10.74,7.65.33,15.94,3.22,23.67,4.26,25.73,4.23,52.26.53,76.52-8.91,5.07-1.88,10.19-3.95,15.51-4.94,11.04-2.28,15.5,4.18,9.84,13.75l-.11.18ZM435.46,361.84c-14.61,1.66-28.34.01-41.52-5.44-10.01-4.02-20.13-13.59-6.62-21.51,6.75-3.9,14.69-6.1,21.81-9.44,6.46-2.88,12.77-6.07,19.03-9.41,38.56-20.61,77.84-52.07,83.46-98.13,1.32-6.43,1.86-18.22,8.67-19.86,3.2-.8,7.87,3.98,9.89,8.33,7.26,15.02,6.36,32.86,3.93,49.05-7.45,53.47-42.9,100.65-98.41,106.39l-.23.03ZM596.79,282.36c-4.72,15.45-18.58,27.76-33.35,33.58-4.23,1.68-8.85,2.9-13.39,2.7-12.78-.63-11.77-11.42-8.1-20.72,2.52-6.71,4.82-13.66,5.2-20.69.35-4.51.34-9.07.49-13.69.75-11.34-.17-27.33,6.38-36.06,10.41-11.69,27.98-.76,35.63,9.13,10.28,12.65,12.4,30.32,7.22,45.54l-.07.21Z"/>
</svg>