<?xml version="1.0" encoding="UTF-8"?>
<svg xmlns="http://www.w3.org/2000/svg" viewBox="0 0 839.18 846.22">
  <defs>
    <style>
      .cls-1 {
        fill: #ec1f27;
      }

      .cls-2 {
        stroke: #fff;
        stroke-linejoin: round;
        stroke-width: 3px;
      }

      .cls-2, .cls-3 {
        fill: #fff;
      }
    </style>
  </defs>
  <g id="Layer_11" data-name="Layer 11">
    <rect class="cls-1" width="839.18" height="846.22"/>
  </g>
  <g id="Layer_6" data-name="Layer 6">
    <g>
      <path class="cls-2" d="M131.14,596.7c-10.28,0-19.61-4.13-24.35-10.79-.25-.38-.55-.8-.86-1.23-1.68-2.34-1.84-2.94-1.35-3.56,1.52-1.36,3.63-2.68,5.68-3.95,1.01-.63,1.97-1.23,2.83-1.82.6-.38,1.11-.59,1.47-.59.11,0,.37,0,.79.4.55.49,1.04.96,1.53,1.44,1.08,1.04,2.2,2.12,3.49,3.02,2.39,1.72,5.05,2.87,7.89,3.39.97.18,1.94.26,2.89.26,5.36,0,9.77-2.82,10.48-6.71.33-1.8.22-6.33-7.85-9.38-1.5-.6-3.05-1.17-4.7-1.77-5.63-2.07-11.46-4.2-15.68-7.75l-.08-.07c-7.17-5.34-8.9-15.65-3.94-23.48,4.29-6.62,12.18-10.43,21.64-10.43,7.96,0,15.78,2.83,20.92,7.57,2.31,2.17,3.5,3.59,4.67,5.58.11.23.11.33.11.33-.05.18-.47.63-1.25,1.31-1.92,1.47-4.5,3.29-6.57,4.75l-.6.42c-.55.34-1.15.73-1.59.77-.56-.06-1.12-.53-1.95-1.3-.34-.31-.68-.62-1.06-.93-2.59-2.43-7.09-4.88-10.78-4.93-.3-.02-.6-.03-.9-.03-2.84,0-5.41.89-7.24,2.52-2.07,1.69-3.33,4.72-1.6,7.14,2.1,2.81,5.95,4.32,9.03,5.53l.9.35c13.48,4.74,26.41,10.62,24.13,25.7-2.35,13.43-15.53,18.21-26.11,18.21h0Z"/>
      <path class="cls-2" d="M212.77,596.01c-1.8,0-3.64-.01-5.42-.02-1.68-.01-3.31-.02-4.82-.02h-.51c-.45,0-.69-.03-.82-.05-.09-.19-.22-.55-.34-.87-.08-.21-1.97-5.31-1.97-5.31-1.31-3.5-3.02-8.14-4.77-12.91-2.55-6.94-5.19-14.11-6.84-18.39l-.04-.11-.05-.1c-.53-.99-1.38-1.1-1.72-1.1-.3,0-1.79.1-1.9,2.13-.11,1.61-.07,6.35-.01,12.36.08,8.72.17,19.41-.17,24.33-.59.03-1.42.03-2.18.03h-11.4c-.33,0-.82,0-1.24-.02-.06-11.25-.02-61.74,0-71.44.14,0,.28,0,.43,0,.26,0,.54.01.84.01s.6,0,.92-.02h11.72c1.09,0,2.17,0,3.25,0,.63,0,.95.04,1.1.06.09.2.23.56.35.88l.07.19c1.64,4.29,3.49,9.37,5.46,14.74,2.9,7.94,5.9,16.15,8.29,22.02l3.51-.58c.14-2.44.12-13.23.09-22.74-.02-6.17-.03-12,0-14.55.25-.02.52-.02.76-.02h.35c1.52,0,3.9,0,6.29,0s5.01,0,6.6,0c.37.02.69.03.99.04.02,6.79.01,34.77,0,53.63,0,8.18,0,14.84,0,17.74-1.81.06-4.01.09-6.81.09Z"/>
      <path class="cls-2" d="M242.35,595.99c-2.67,0-5.36,0-6.95,0-.18-.02-.37-.03-.57-.03h-.09c.03-3.81,0-11.87-.04-21.04-.08-18.46-.19-43.23.16-50.38.24,0,.47,0,.6,0h7.86c2.28,0,4.45,0,5.79.01.17,0,.38,0,.57.02.07,2.25.06,5.58.04,9.39,0,2.6-.02,5.38,0,8.11,0,1.42,0,2.76,0,3.95,0,2.08-.01,3.72.04,4.71.11,1.3.61,2.18,1.5,2.67.95.49,1.92.51,2.7.52.15,0,.5.02.5.02h.07c.55-.02,1.16-.02,1.79-.02,1.06,0,2.21.02,3.38.03,1.26.02,2.55.04,3.81.04,2.63,0,4.5-.09,5.89-.28l.2-.03.19-.07c1.92-.72,1.95-2.64,1.97-3.46,0-.12,0-.23,0-.34v-.1c0-2.24,0-6.44,0-10.84,0-5.67,0-11.66.01-14.17v-.12c.23-.02.49-.02.68-.02h.35c.62.01,1.3.02,2.02.02,1.13,0,2.37-.02,3.63-.04,1.31-.02,2.66-.04,3.97-.04,1.79,0,3.21.04,4.36.12,0,.2,0,.41,0,.63,0,.42-.01.87,0,1.38,0,0,0,65.69,0,69.35-.2,0-.42,0-.64.02-1.15,0-2.89,0-4.79,0h-7.65c-.7,0-1.44,0-1.91-.05-.05-.46-.04-1.09-.02-1.86.02-.73.03-1.64,0-2.71v-19.74c0-2.01,0-4.51-3.5-4.7-1.05-.05-2.06-.06-2.83-.06h-2.65s-.91,0-.91,0c-.42,0-.82,0-1.25,0h-3.94c-1.51-.01-2.54,0-3.32.04-3.28.05-3.63,2.47-3.62,3.51-.04,2.37-.03,8.26-.03,13.96,0,3.35,0,6.66,0,9.22v.74c.01.58.02,1.22-.01,1.61-.12.01-.29.02-.53.02h-.31c-1.6,0-4.05,0-6.51,0Z"/>
    </g>
    <g>
      <path class="cls-2" d="M562.37,596.01c-2.14,0-4.3-.02-6.35-.04-1.88-.02-3.68-.03-5.31-.03-1.1,0-2.13,0-3.05.03-.03-7.03-.02-32.98-.02-52.28v-19.03s0-.1,0-.13c.14,0,.29,0,.45-.01.67,0,1.53,0,2.47,0,1.55,0,3.31,0,5.15-.01,2,0,4.08-.01,6.09-.01,3.03,0,5.23.01,6.94.04h.26c19.88,0,30.96,10.34,32.04,29.91,1.24,14-1.39,25.15-7.61,32.31-4.74,5.46-11.51,8.47-20.1,8.92-2.74.23-6.2.33-10.94.33ZM568.61,537.46c-.54,0-1.08,0-1.62.02,0,0-.37.02-.51.03-.99.05-3.6.18-3.8,2.86v.12c-.03,3.17-.03,13.34-.02,22.3,0,4.95,0,9.56,0,12.45.05,1.17.01,2.07-.01,2.79-.06,1.49-.11,2.78.85,3.78.99,1.03,2.49,1.11,4.07,1.11.47,0,1.02-.01,1.64-.03h.15c6.89-.05,14.21-1.59,16.06-12.64,1.38-8.64,1.09-16.74-.83-23.47-2.37-8.26-9.79-9.32-15.98-9.32Z"/>
      <path class="cls-2" d="M633.23,596.68c-10.28,0-19.61-4.13-24.35-10.79-.25-.38-.55-.8-.86-1.23-1.68-2.34-1.84-2.94-1.35-3.56,1.52-1.36,3.63-2.68,5.67-3.95,1.01-.63,1.97-1.23,2.84-1.82.6-.38,1.11-.59,1.47-.59.11,0,.37,0,.79.4.55.49,1.04.96,1.53,1.44,1.08,1.04,2.2,2.12,3.49,3.02,2.39,1.72,5.05,2.87,7.89,3.39.97.18,1.94.26,2.89.26,5.36,0,9.77-2.82,10.48-6.7.33-1.8.22-6.33-7.85-9.38-1.5-.6-3.05-1.17-4.7-1.77-5.63-2.07-11.46-4.2-15.68-7.75l-.08-.07c-7.17-5.34-8.9-15.65-3.94-23.48,4.29-6.62,12.18-10.43,21.64-10.43,7.96,0,15.78,2.83,20.92,7.57,2.31,2.17,3.5,3.59,4.67,5.58.11.23.11.33.11.33-.05.18-.47.63-1.25,1.31-1.92,1.47-4.5,3.29-6.57,4.75l-.6.42c-.55.34-1.15.73-1.59.77-.56-.06-1.12-.53-1.95-1.3-.34-.31-.68-.63-1.06-.93-2.59-2.43-7.09-4.88-10.78-4.93-.3-.02-.6-.03-.9-.03-2.84,0-5.41.89-7.24,2.52-2.07,1.69-3.33,4.72-1.6,7.14,2.1,2.81,5.95,4.32,9.03,5.53l.9.35c13.48,4.74,26.41,10.62,24.13,25.7-2.35,13.43-15.53,18.21-26.11,18.21h0Z"/>
      <path class="cls-2" d="M716.87,596.02c-2.44,0-4.2-.07-5.49-.22-.12-.17-.29-.7-.4-1.03l-.05-.17c-.3-.99-.63-2.27-.98-3.63-.5-1.95-1.01-3.97-1.54-5.42-.91-2.85-3.68-2.85-4.86-2.85h-.29c-.69.02-1.43.02-2.21.02-1.23,0-2.57-.02-3.95-.03-1.48-.02-3.01-.03-4.49-.03-2.94,0-5.04.07-6.62.21h-.13s-.13.04-.13.04c-2.08.5-2.67,2.39-3.03,3.52l-.05.16c-.32,1.08-.7,2.54-1.08,4-.4,1.55-.82,3.15-1.14,4.2-.07.22-.27.86-.43,1.04-1.32.12-3.1.18-5.57.18-1.4,0-2.85-.02-4.23-.03-1.29-.02-2.52-.03-3.62-.03-.68,0-1.32,0-1.88.02,3-11.7,15.54-54.84,20.8-71.46.11,0,.83,0,.83,0,.76.02,1.75.03,2.85.03,1.63,0,3.49-.02,5.41-.03,2.03-.02,4.12-.04,6.06-.04,2.35,0,4.1.03,5.38.09,2.14,5.75,9.03,30.12,14.16,48.24,2.99,10.57,5.45,19.25,6.64,23.18h0c-.6-.02-1.27-.03-2-.03-1.12,0-2.38.02-3.69.04-1.4.02-2.87.05-4.29.05ZM694.03,543.92c-1.13,3.4-3.14,11.04-4.61,16.61-.68,2.58-1.27,4.81-1.55,5.81l-.03.09-.02.09c-.26,1.42.13,2.4,1.16,2.96l.24.13.26.06c.96.2,2.13.29,3.78.29.7,0,1.42-.02,2.13-.03.66-.01,1.31-.03,1.92-.03.4,0,.78,0,1.13.02h.11s.11,0,.11,0c.19-.01.38-.02.55-.02.22,0,.42,0,.62.01.21,0,.41.01.6.01.58,0,1.94,0,2.89-1.11l.53-.62-.1-.8c-.33-2.59-1.52-6.77-2.78-11.2-.79-2.77-1.6-5.64-2.19-8.06-.22-.81-.4-1.47-.55-2.04-.61-2.3-.86-3.26-2.24-3.41h-.1s-1.42-.01-1.42-.01l-.43,1.25Z"/>
    </g>
  </g>
  <g id="Layer_12" data-name="Layer 12">
    <g>
      <path class="cls-3" d="M355.73,526.98h2.34v-4.11c0-4.28-3.47-7.75-7.75-7.75h-6.46c0,6.55,5.31,11.87,11.87,11.87Z"/>
      <path class="cls-3" d="M488.28,515.11h-6.46c-4.28,0-7.75,3.47-7.75,7.75v4.11h2.34c6.55,0,11.87-5.31,11.87-11.87Z"/>
      <path class="cls-3" d="M693.01,181.08l-.1-.12c-11.46-14.48-32.72-11.66-37.95,6.6-3.83,15.15,1.58,32.08.67,47.9.26,4-1.53,24.55-3.95,18.63-2.16-10.43-2.15-23.47-4.49-33.9-1.72-9.21-4.69-18.47-8.63-28.28-9.15-20.59-22.15-50.43-46.51-56.41-8.6-1.58-16.29,2.58-24.52,1.27-6.52-.96-11.83-6.03-16.77-10.83-14.06-14.24-32.46-23.93-51.52-24.96-14.48-1.27-28.33,5.36-42.78,4.05-6.43-.4-13.1-2.1-19.49-3.58-12.56-2.88-26.08-3.58-38.86-2.07-9.79,1.03-19.33,4.25-29.1,5.04-13.11,1.3-26.42-1.4-39.44,1.54-14.37,3.27-28.11,9.8-39.97,18.43-4.57,3.3-9.65,7.13-14.72,8.98-15.84,5.59-28.38-3.8-43.4,9.35-11.67,9.63-20.33,24.52-26.93,38.32-10.63,21.35-15.33,43.71-16.83,66.86-1.81,17.19-4.88-.55-4.95-9.88-.25-7.73.18-15.57.91-23.27,1.52-15.01,3.76-33.29-11.56-41.16-37.21-14.02-46.88,58.16-43.88,82.7,2.92,46.41,36.78,68.8,71.33,93.84,6.31,4.56,13.54,9.04,19.7,13.74,4.07,3.18,6.66,5.9,6.88,7.7-.04,4.58-11.56,2.94-15.37,3.08-14.25-.69-41.95-1.19-52.72,7.06-8.04,7.15-2.6,19.29-1.37,28.86,3.52,16.76,10.31,33.84,21.03,47.24,8.75,10.4,19.18,19.9,31.06,26.69,21.59,10.2,45.26,13.93,69.03,14.05,10.7.97,32.96-3.33,38.98,6.65,6.83,11.4,5.36,25.53,3.51,38.44-2.72,12.23-4.32,24.66-5.4,37.14-2,16.81-6.83,34.06-10.77,50.51-9.96,38.11-9.97,53.64,23.56,78.37,17.22,13.92,35.17,28.69,52.59,42.62,13.73,11.24,30.93,22.62,49.33,16.7,10.9-3.3,20.31-10.71,29.21-17.69,8.23-6.58,16.32-13.22,24.53-19.86,15.99-13.74,33.36-25.11,47.32-40.58,9.54-10.76,10.67-25.21,7.74-38.82-4.66-24.13-12.76-47.82-15.55-72.19-1.03-11.02-2.15-22.12-4.71-32.9-2.43-13.6-5.5-35.5,6.37-45.19,8.16-4.95,22.91-2.59,32.92-3.22,25.29-.28,59.05-5.27,79.03-21.56,26.86-19.94,39.26-48.42,43.42-80.88,3.19-17.31-13.9-19.57-27.54-20.98-7.63-.85-15.02-1.13-22.75-.75-22.62,1.55-24.9-.93-5.58-14.1,14.98-10.08,29.67-20.44,43.59-31.84,16.94-13.53,32.48-29.39,38.43-50.67,8.72-29.16,5.08-71.93-13.01-96.67ZM582.94,232.59c6.1,11.98,6.4,26.25,2.07,38.85-2.41,7.17-5.43,14.6-10.93,19.8-8.24,7.8-19.46,14.34-27.83,16.67-4.44,1.24-9.5,2.2-13.96.91-7.66-2.24-6.87-10.03-3.1-16l.08-.14c14.2-20.99,5.28-32.83,9.31-57.9,1.24-5.96.34-12.25,1.79-18.11,1.61-6.07,7.69-8.22,13.85-7.22,12.66,2.24,23.05,11.87,28.7,23.14ZM477.4,118.62c33.03-9.91,68.73,15.85,79.86,52.87,2.7,7.59,2.85,19.55-7.06,20.78l-1.17.03c-6.23-.22-10.32-6.33-13.93-10.94-14.09-18.93-32.35-35.29-54.68-49.09-3.39-2.26-6.4-3.59-9.1-6.65-3.04-4.13,3.11-6.04,6.08-7ZM420.01,216.2c13.08,3.36,26.36.13,38.09-6.41,3.83-1.95,8.06-4.96,12.34-5.08h.11c6.94.54,5.44,10.96,3.65,16.59-2.87,9.38-10.51,16.17-19.38,20.42-46.13,21.69-94.76-6.51-110.26-48.38-3.55-9.46-6.86-21.19-2-30.73,5.55-9.87,16.63-6.84,23.22.31,4.47,4.51,7.71,10,10.72,15.52,9.45,18.71,21.46,32.55,43.52,37.75ZM412.14,149.62c10.27-6.51,22.83-5.34,33.23.5,3.23,2.02,8.64,4.13,9.06,8.27-.04,1.91-2.4,3.8-5.4,5.44-6.68,3.64-14.04,6.14-21.43,6.1h-.49c-7.66-.26-19.76-1.97-25.13-7.49-2.51-5.02,6.45-10.29,10.16-12.81ZM431.67,264.4c17.24,1.23.48,12.92-5.58,17.54-15.66,10.79-40.88,26.41-59.21,30.75-9.31,2.03-18.88,1.42-28.21-.25l-.16-.03c-17.26-2.98-25.18-13.83-32.41-30.78-10.3-23.33-5.36-53.92,8.42-76.26,3.22-4.9,8.7-11.24,14.3-7.81,4.19,2.73,6.5,7.71,9.09,12.44,17.97,36.98,53.11,54.67,93.75,54.39ZM363.72,362.21c4.56,1.45,9.14,2.74,13.82,3.7,32.01,6.99,65.51.87,94.5-13.99l.16-.06c14.97-6.37,20.59,4.26,11.04,15.98-7.16,8.63-16.45,15.45-26.33,20.68-28.4,15.11-64.81,13.41-91.59-4.49-6.67-4.65-15.44-12.16-16.59-20.38.05-7.2,10.99-2.5,14.99-1.44ZM422.78,352.45c-16.75,2.01-31.25-.59-46.93-8.14-4.15-2.11-9.07-4.38-11.38-8.57-3.17-6.61,4.08-10.58,9.97-11.83l.16-.04c10.17-2.25,18.84-6.01,27.97-11,26.9-12.73,52.35-29.19,71.8-51.96,6.22-7.07,11.91-14.78,15.73-23.4,4.58-10.25,7.52-22.28,8.71-33.66.43-3.9.59-7.43.82-11.51.23-2.98.57-6.2,2.36-8.68,6.09-6.64,12.65,5.99,14.78,11.02,4.26,9.62,5.79,20.21,5.58,30.67-3.15,61.38-33.58,118.88-99.58,127.1ZM469.03,163.91c4.03-3.9,7.08-8.1,11.88-7.52,4.94,1.34,6.47,7.68,6.02,12.73-.77,7.16-5.9,12.97-11.17,17.99-15.44,14.01-32.94,21.81-52.06,11.2-3.11-1.28-22.44-14.5-13.34-16.5,4.23-.63,12.43.93,17.8.43,15.2-.65,30.23-7.16,40.74-18.2l.13-.13ZM359.55,128.12c17.12-10.57,37.21-14.61,57.33-13.13,14.22,1.23,28.93,5.13,40.73,13.58,3.72,2.41,12.82,12,2.27,9.56-6.28-1.65-13.35-5.32-19.93-6.77-8.21-1.96-16.74-1.5-24.66,1.36-12.82,4.27-22.44,16.91-36.31,16.91-3.46.08-6.92-.45-10.36-1.19-4.91-1.1-11.3-2.78-15.02-5.54l-.08-.06c-6.6-5.11,1.22-11.65,6.03-14.72ZM343.7,119.24c11.21-.27.17,10.4-3.6,14.22-26.59,23.8-48.33,51.88-56.37,78.4-.79,2.18-1.89,6.08-3.79,6.54l-.26.03c-1.29.1-2.88-1.61-4.5-4.41-3.97-7.04-6.95-15.77-7.53-23.9-2.32-40.5,40.94-67.8,76.04-70.89ZM272.61,230.17c9.11,3.87,11.92,17.15,14.39,26.69,1.86,7.67,4.01,15.3,7.08,22.51,2.6,7.15,8.65,14.87,8.53,22.03-.61,9.79-17.26,12.77-24.33,11.54l-.16-.03c-6.96-1.17-12.9-6.36-17.22-12.38-12-16.6-12.58-39-3.73-58.26,2.82-6.32,8.24-14.58,15.44-12.09ZM179.06,389.87c1.37-.26,3.88-.33,5.9-.36,3.64-.02,8.14-.04,12.59-.04s8.15.02,11.13.05c5.25.2,8.32.43,9.98,2.98l.04.06c1.65,2.94,1.16,8.95-.06,13.58-.92,3.8-2.42,4.29-3.63,4.29h0c-1.9,0-4.43-1.35-6.86-2.73-6.27-3.63-14.13-8.32-20.44-12.09l-3.34-1.99c-.32-.2-.68-.42-1.04-.64-1.6-.98-3.25-2-4.45-3.08.06-.01.11-.02.18-.04ZM178.44,421.8c-2.01,0-3.64-.51-4.96-1.55-3.75-3.47-4.65-9.6-5.45-15.02-.09-.6-.18-1.2-.26-1.77l-.02-.26c-.15-1.92-.32-4.09.53-5.57.23-.3.66-.67,1.65-.67,2.92,0,7.66,3.04,10.8,5.04.93.6,1.75,1.12,2.4,1.49.91.66,2.09,1.4,3.34,2.19,3.51,2.21,9.36,5.9,9.09,8.36-.98,2.88-7.46,5.34-9.92,6.27-2.02.67-4.72,1.46-7.19,1.46h0ZM192.29,449.59c-2.2,0-4.13-.52-5.91-1.6-4.36-3.06-9.58-9.98-6.78-15.02,2.87-4.31,8.89-6.71,14.21-8.83.76-.3,1.5-.6,2.22-.89,4.67-1.84,8.63-2.74,12.08-2.74,1.67,0,3.23.22,4.65.65,5.02,1.26,18.34,8.32,19.64,11.92.08,1.51-2.21,2.6-6.58,4.54l-1.49.67c-4.16,1.73-9.12,3.75-13.92,5.7l-4.31,1.76c-.7.26-1.45.55-2.21.84-3.85,1.48-7.83,3.01-11.58,3.01h0ZM227.27,408.64c.48-6.59,1.62-13.83,6.44-17.38,1.75-1.12,4.05-1.69,6.95-1.69,2.35,0,4.79.36,7.14.7.57.08,1.14.17,1.69.24,8.64,1.36,12.08,3.96,12.65,9.58.46,4.2-.09,8.37-.66,12.78-.12.93-.24,1.87-.36,2.81-.24,1.26-.45,3.08-.67,5.01-.53,4.7-1.41,12.55-3.67,13.51l-.14.06-.07.04s-.2.09-.56.09h0c-1.51,0-4.45-1.17-7.88-3.12-1.37-.81-2.79-1.61-4.3-2.46-4.57-2.56-9.3-5.21-12.81-8.46-2.8-2.58-4.06-6.52-3.75-11.72ZM229.3,476.32h0c-5.58,0-11.4-2.06-18.85-6.68-.58-.39-1.31-.84-2.11-1.34-3.57-2.21-8.96-5.55-8.74-8.58.8-3.18,9.97-6.64,15.47-8.71,2.22-.84,4.14-1.56,5.51-2.2,1.33-.52,2.73-1.08,4.13-1.64,3.06-1.22,6.22-2.48,9.31-3.64,3.85-1.55,7.13-2.29,10.05-2.29,2.39,0,4.58.48,6.69,1.47,4.19,1.8,8.33,4.2,12.33,6.53,1.22.71,2.44,1.42,3.64,2.1.68.44,1.52.93,2.39,1.44,2.79,1.64,6.26,3.66,6.97,5.59-.08,1.64-6.64,4.15-9.46,5.23-1.4.54-2.73,1.04-3.7,1.5-2.98,1.12-6.03,2.37-8.97,3.57-6.17,2.53-12.55,5.14-18.86,6.82-1.89.55-3.82.82-5.78.82ZM269.37,426.08c.19-1.43.39-2.91.54-4.36.18-1.38.36-2.81.54-4.23.57-4.59,1.11-8.93,1.91-12.14.52-2.34,1.8-6.21,4.6-6.21.31,0,.65.05,1,.14,5.32,1.52,10.77,5.71,13.22,10.19l.05.1c2.79,5.38,1.69,13.72.72,21.09-.19,1.43-.37,2.82-.52,4.13l-.26,2.06c-.26,2.04-.51,4.03-.76,5.86-.15.76-.28,1.64-.41,2.5-.45,3.09-.92,6.29-3.13,7.69-.33.15-.74.23-1.21.23h0c-1.99,0-5-1.27-8.73-3.67-4.94-3.24-7.52-6.53-8.12-10.32-.63-4.17-.03-8.69.56-13.07ZM313.48,482.41c-.54,0-1.07.02-1.58.03-3.42.02-7.79.02-12.5.02h-28.28c-4.75,0-8.77-.03-12.99-.14-6.95-.13-9.28-.68-10.06-1.01.39-.36,1.36-1.05,3.73-2.13,4.76-2.12,10.23-4.22,15.52-6.26,2.26-.87,4.47-1.72,6.53-2.53,4.62-1.79,9.42-3.46,13.21-3.46.5,0,.98.03,1.42.09l.19.02c4.93.53,11.16,4.1,16.66,7.25,1.39.8,2.74,1.57,4.01,2.26.39.27,1.1.67,2.06,1.21,1.57.88,5.41,3.03,6.65,4.28-1.32.31-2.98.34-4.59.36ZM320.71,474.76c-4.39-1.85-9.45-5.15-13.36-7.82-5.59-3.74-8.93-7.68-8.28-15.79.28-4.88.94-10,1.57-14.95.18-1.4.36-2.8.53-4.17.11-.6.23-1.38.36-2.23.44-2.91,1.24-8.28,3.02-8.88.29.02.85.21,1.86,1.23,1.57,1.61,3.2,4.13,4.29,5.89,7.03,11.35,12.16,24.32,14.83,37.51.45,2.3,1.51,7.71.06,9.47-.21.26-.6.6-1.53.6h0c-.87,0-1.99-.3-3.33-.88ZM518.57,645.83c1.68,7.47,5.69,20.26,4.34,25.85l-.02.08c-.87,3.77-3.81,6.49-8.98,10.77-3.96,3.25-7.92,6.43-11.98,9.73-15.74,12.74-34.7,28.11-50.87,41.19-10.11,7.47-25.78,24.08-37.13,21.99-4.83-.89-8.56-3.21-12.93-6.2-4.61-3.26-11.32-8.98-16.74-13.29-20.58-16.65-46.66-37.79-66.17-53.61-5.56-4.47-10.02-8.72-8.97-15.44.95-8.04,3.35-15.75,5.23-23.86,2.82-11.46,5.99-24.23,8.76-35.51,2.65-10.51,4.93-20.12,5.56-28.74.39-4.8.5-9.67.57-14.5.34-3.4-.79-18.95,4.32-17.66,1.01.29,1.87.88,2.78,1.65,3.68,3.06,10.17,11.43,15.06,17.58,4.21,5.37,8.11,11.02,10.89,17.22,3.55,7.78,4.5,14.2,7.19,22.09,2.22,6.6,5.51,13.46,9.6,19.77,5.42,8.14,12.32,16.12,21.53,19.82,11.04,3.94,27.65,3.68,37.53-3.5,11.17-7.9,19.83-22.35,24.37-35.32,3.82-11.69,5.51-21.97,12.72-32.35,5.49-7.95,15-20.04,20.49-25.16,7.85-6.88,6.91,7.07,7.28,16.36-.06,12.3,1.35,24.33,4.53,36.24,3.27,13.32,7.37,29.96,11.04,44.8ZM331.89,507.78c.68-4.6,4.98-7.98,9.52-8.37,2.98-.29,6.5.91,10.23,3.16l.14.09c11.94,6.98,20.81,18.82,23.9,32.29,1.24,5.15,1.26,10.69.66,15.86-1.97,17.25-7.03,18.72-18.86,2.88-3.9-5.26-7.95-10.9-11.79-16.18-5.8-7.9-14.93-20.89-13.8-29.72ZM387.84,607.86c4.39-4.3,10.84-5.13,17.56-6.19,11.24-1.34,27.86-.91,37.01,4.44l.12.08c6.3,4.21,4.29,11.04-1.25,15.21-4.05,3.35-10.54,5.65-16.02,6.9-9.89,2.46-20.4.46-29.58-3.91-7.44-3.88-12.97-10.18-7.83-16.53ZM457.24,534.32c3.04-13.23,11.75-24.86,23.48-31.72l.14-.08c3.67-2.21,7.13-3.39,10.05-3.11,4.46.38,8.68,3.71,9.35,8.22,1.12,8.67-7.85,21.43-13.55,29.19-3.78,5.18-7.76,10.73-11.58,15.89-11.63,15.56-16.59,14.12-18.53-2.83-.59-5.08-.57-10.52.65-15.58ZM502.89,465.56c2.68-13.19,7.81-26.16,14.83-37.51,1.09-1.76,2.72-4.28,4.29-5.89,1-1.02,1.57-1.21,1.86-1.23,1.78.59,2.58,5.96,3.02,8.88.13.84.24,1.63.36,2.23.17,1.37.35,2.77.53,4.17.63,4.95,1.29,10.07,1.57,14.95.64,8.11-2.69,12.05-8.28,15.79-3.91,2.67-8.97,5.97-13.36,7.82-1.34.58-2.47.88-3.33.88h0c-.92,0-1.32-.34-1.53-.6-1.45-1.77-.39-7.17.06-9.47ZM570.26,482.32c-4.21.11-8.24.14-12.99.14h-28.28c-4.71,0-9.08,0-12.5-.02-.52-.02-1.05-.03-1.58-.03-1.61-.02-3.27-.05-4.59-.36,1.25-1.25,5.08-3.4,6.65-4.28.96-.54,1.67-.94,2.06-1.21,1.27-.69,2.62-1.46,4.01-2.26,5.5-3.15,11.74-6.72,16.66-7.25l.19-.02c.44-.06.92-.09,1.42-.09,3.79,0,8.59,1.66,13.21,3.46,2.06.82,4.27,1.66,6.53,2.53,5.29,2.03,10.76,4.13,15.52,6.26,2.37,1.08,3.34,1.77,3.73,2.13-.78.33-3.11.88-10.06,1.01ZM537.17,409.58l.05-.1c2.45-4.48,7.89-8.68,13.22-10.19.35-.09.69-.14,1-.14,2.8,0,4.08,3.87,4.6,6.21.8,3.21,1.34,7.55,1.91,12.14.18,1.42.35,2.85.54,4.23.15,1.44.35,2.92.54,4.36.59,4.38,1.19,8.9.56,13.07-.6,3.79-3.18,7.07-8.12,10.32-3.72,2.4-6.74,3.67-8.73,3.67h0c-.48,0-.88-.08-1.21-.23-2.21-1.4-2.68-4.6-3.13-7.69-.13-.85-.25-1.74-.41-2.5-.26-1.84-.51-3.83-.76-5.86l-.26-2.06c-.15-1.31-.33-2.7-.52-4.13-.97-7.36-2.07-15.71.72-21.09ZM620.08,468.31c-.8.5-1.53.95-2.11,1.34-7.45,4.62-13.27,6.68-18.85,6.68h0c-1.96,0-3.9-.27-5.78-.82-6.31-1.68-12.69-4.29-18.86-6.82-2.95-1.21-5.99-2.45-8.97-3.57-.97-.45-2.3-.96-3.7-1.5-2.82-1.08-9.38-3.59-9.46-5.23.71-1.93,4.18-3.95,6.97-5.59.87-.51,1.71-1,2.39-1.44,1.21-.69,2.42-1.39,3.64-2.1,4-2.33,8.14-4.73,12.33-6.53,2.11-.99,4.29-1.47,6.69-1.47,2.93,0,6.2.75,10.05,2.29,3.08,1.15,6.25,2.42,9.31,3.64,1.4.56,2.8,1.12,4.13,1.64,1.37.65,3.29,1.37,5.51,2.2,5.5,2.07,14.67,5.53,15.47,8.71.22,3.03-5.17,6.37-8.74,8.58ZM566.27,400.09c.57-5.62,4-8.22,12.65-9.58.55-.08,1.12-.16,1.69-.24,2.36-.34,4.79-.7,7.14-.7,2.9,0,5.2.57,6.95,1.69,4.82,3.55,5.96,10.79,6.44,17.38.31,5.2-.96,9.14-3.75,11.72-3.52,3.25-8.24,5.9-12.81,8.46-1.51.85-2.94,1.65-4.3,2.46-3.42,1.95-6.37,3.12-7.88,3.12h0c-.36,0-.51-.07-.56-.09l-.07-.04-.14-.06c-2.26-.96-3.14-8.81-3.67-13.51-.22-1.93-.42-3.75-.67-5.01-.11-.94-.24-1.88-.36-2.81-.58-4.41-1.12-8.58-.66-12.78ZM642.02,447.99c-1.78,1.08-3.71,1.6-5.91,1.6h0c-3.76,0-7.74-1.53-11.58-3.01-.75-.29-1.5-.58-2.21-.84l-4.31-1.76c-4.8-1.95-9.77-3.97-13.92-5.7l-1.49-.67c-4.37-1.94-6.66-3.03-6.58-4.54,1.3-3.6,14.62-10.66,19.64-11.92,1.42-.43,2.98-.65,4.65-.65,3.45,0,7.41.9,12.08,2.74.71.3,1.46.59,2.22.89,5.31,2.12,11.33,4.52,14.21,8.83,2.8,5.04-2.42,11.96-6.78,15.02ZM658.49,396.97c.99,0,1.41.37,1.65.67.85,1.48.68,3.65.53,5.57l-.02.26c-.09.57-.18,1.17-.26,1.77-.8,5.41-1.7,11.55-5.45,15.02-1.33,1.04-2.95,1.55-4.96,1.55h0c-2.47,0-5.17-.79-7.19-1.46-2.45-.93-8.94-3.39-9.92-6.27-.27-2.46,5.58-6.15,9.09-8.36,1.25-.79,2.43-1.53,3.34-2.19.66-.38,1.47-.89,2.4-1.49,3.14-2.01,7.88-5.04,10.8-5.04ZM619.72,389.52c2.97-.03,6.72-.05,11.13-.05s8.95.02,12.59.04c2.03.03,4.53.1,5.9.36.06.01.12.02.18.04-1.2,1.08-2.85,2.09-4.45,3.08-.36.22-.71.44-1.04.64l-3.34,1.99c-6.32,3.77-14.17,8.46-20.44,12.09-2.43,1.38-4.96,2.73-6.86,2.73h0c-1.21,0-2.71-.49-3.63-4.29-1.22-4.63-1.71-10.64-.06-13.58l.04-.06c1.66-2.55,4.73-2.78,9.98-2.98ZM674.9,298.54c-40.83,41.19-116.99,80.57-169.84,118.7-5.67,4.39-10.73,10.02-12.45,17.13-2.61,10.46.96,22.82-3.38,33.35-3.87,10.37-12.74,17.63-20.21,25.41-19.22,17.7-24.59,43.78-27.63,68.72-.85,7.08-3.32,15.18-7.8,21.17-3.92,5.24-10.17,8.23-16.72,8.23h-.99c-6.55,0-12.8-2.98-16.72-8.23-4.48-5.98-6.95-14.09-7.8-21.17-3.04-24.94-8.41-51.02-27.63-68.72-7.47-7.78-16.34-15.04-20.21-25.41-4.34-10.53-.77-22.88-3.38-33.35-1.72-7.11-6.78-12.74-12.45-17.13-52.85-38.13-129.02-77.51-169.84-118.7-23.75-24.27-21.82-76.91-2.8-110.22,4.14-7.25,15.29-3.07,13.73,5.13-5.02,26.41-8.94,64.4,5.51,80.43,5.23,7.11,16.32,18.52,25.52,14.24,6.6-7.3.97-19.63,1.2-28.64-1.28-13.33,1.66-31.95,4.05-41.6,2.95-13.64,25.39-74.42,48.5-67.91,15.35,15.45-50.34,70.84-18.38,140.73,10.43,22.87,28.93,39.8,48.27,55.47,3.68,2.08,18.29,17.02,19.9,10.97-.76-11.15-3.51-24.45,4.79-33.64,6.55-8.94,20.07-4.64,20.95,6.16,1.13,7.59-1.26,15.31.14,22.93,4.2,19.91,16.82,38.71,34,49.41l.16.1c14.57,8.89,28.94,19.24,45.04,23.34,2.12.43,4.84.77,7.95.73,3.12.04,5.84-.3,7.95-.73,16.1-4.1,30.47-14.45,45.04-23.34l.16-.1c17.18-10.7,29.8-29.51,34-49.41,1.41-7.61-.99-15.33.14-22.93.88-10.8,14.39-15.1,20.95-6.16,8.3,9.19,5.55,22.49,4.79,33.64,1.6,6.06,16.21-8.89,19.9-10.97,19.35-15.67,37.84-32.6,48.27-55.47,31.95-69.89-33.74-125.29-18.38-140.73,23.1-6.51,45.55,54.27,48.5,67.91,2.39,9.65,5.33,28.28,4.05,41.6.23,9.01-5.4,21.34,1.2,28.64,9.2,4.28,20.29-7.12,25.52-14.24,14.45-16.03,10.53-54.01,5.51-80.43-1.56-8.2,9.6-12.38,13.73-5.13,19.02,33.31,20.95,85.95-2.8,110.22Z"/>
    </g>
  </g>
</svg>